<?xml version="1.0" encoding="utf-8" standalone="no"?>
<!DOCTYPE svg PUBLIC "-//W3C//DTD SVG 1.1//EN"
  "http://www.w3.org/Graphics/SVG/1.1/DTD/svg11.dtd">
<svg xmlns:xlink="http://www.w3.org/1999/xlink" width="576pt" height="432pt" viewBox="0 0 576 432" xmlns="http://www.w3.org/2000/svg" version="1.1">
 <metadata>
  <rdf:RDF xmlns:dc="http://purl.org/dc/elements/1.1/" xmlns:cc="http://creativecommons.org/ns#" xmlns:rdf="http://www.w3.org/1999/02/22-rdf-syntax-ns#">
   <cc:Work>
    <dc:type rdf:resource="http://purl.org/dc/dcmitype/StillImage"/>
    <dc:date>2023-09-09T01:09:57.387313</dc:date>
    <dc:format>image/svg+xml</dc:format>
    <dc:creator>
     <cc:Agent>
      <dc:title>Matplotlib v3.5.2, https://matplotlib.org/</dc:title>
     </cc:Agent>
    </dc:creator>
   </cc:Work>
  </rdf:RDF>
 </metadata>
 <defs>
  <style type="text/css">*{stroke-linejoin: round; stroke-linecap: butt}</style>
 </defs>
 <g id="figure_1">
  <g id="patch_1">
   <path d="M 0 432 
L 576 432 
L 576 0 
L 0 0 
z
" style="fill: #ffffff"/>
  </g>
  <g id="axes_1">
   <g id="patch_2">
    <path d="M 72 384.48 
L 518.4 384.48 
L 518.4 51.84 
L 72 51.84 
z
" style="fill: #ffffff"/>
   </g>
   <g id="matplotlib.axis_1">
    <g id="xtick_1">
     <g id="line2d_1">
      <path d="M 92.290909 384.48 
L 92.290909 51.84 
" clip-path="url(#p329c433144)" style="fill: none; stroke: #b0b0b0; stroke-width: 0.8; stroke-linecap: square"/>
     </g>
     <g id="line2d_2">
      <defs>
       <path id="m8e5e4f1d64" d="M 0 0 
L 0 3.5 
" style="stroke: #000000; stroke-width: 0.8"/>
      </defs>
      <g>
       <use xlink:href="#m8e5e4f1d64" x="92.290909" y="384.48" style="stroke: #000000; stroke-width: 0.8"/>
      </g>
     </g>
     <g id="text_1">
      <!-- 9.0 -->
      <g transform="translate(84.790909 398.355)scale(0.1 -0.1)">
       <defs>
        <path id="SimHei-39" d="M 800 75 
Q 1350 1000 1700 1750 
Q 1075 1650 662 1912 
Q 250 2175 162 2625 
Q 75 3075 175 3437 
Q 275 3800 487 4037 
Q 700 4275 1000 4375 
Q 1300 4475 1537 4475 
Q 1775 4475 2025 4375 
Q 2275 4275 2475 4075 
Q 2675 3875 2750 3662 
Q 2825 3450 2825 3112 
Q 2825 2775 2575 2250 
Q 2325 1725 1350 75 
L 800 75 
z
M 662 2875 
Q 700 2550 937 2337 
Q 1175 2125 1450 2150 
Q 1725 2175 1887 2300 
Q 2050 2425 2200 2725 
Q 2300 3100 2250 3362 
Q 2200 3625 1987 3800 
Q 1775 3975 1525 3975 
Q 1375 4000 1137 3900 
Q 900 3800 762 3500 
Q 625 3200 662 2875 
z
" transform="scale(0.015625)"/>
        <path id="SimHei-2e" d="M 1075 125 
L 500 125 
L 500 675 
L 1075 675 
L 1075 125 
z
" transform="scale(0.015625)"/>
        <path id="SimHei-30" d="M 225 2537 
Q 250 3200 412 3587 
Q 575 3975 875 4225 
Q 1175 4475 1612 4475 
Q 2050 4475 2375 4112 
Q 2700 3750 2800 3200 
Q 2900 2650 2862 1937 
Q 2825 1225 2612 775 
Q 2400 325 1975 150 
Q 1550 -25 1125 187 
Q 700 400 525 750 
Q 350 1100 275 1487 
Q 200 1875 225 2537 
z
M 750 2687 
Q 675 2000 800 1462 
Q 925 925 1212 700 
Q 1500 475 1800 612 
Q 2100 750 2237 1162 
Q 2375 1575 2375 2062 
Q 2375 2550 2337 2950 
Q 2300 3350 2112 3675 
Q 1925 4000 1612 4012 
Q 1300 4025 1062 3700 
Q 825 3375 750 2687 
z
" transform="scale(0.015625)"/>
       </defs>
       <use xlink:href="#SimHei-39"/>
       <use xlink:href="#SimHei-2e" x="50"/>
       <use xlink:href="#SimHei-30" x="100"/>
      </g>
     </g>
    </g>
    <g id="xtick_2">
     <g id="line2d_3">
      <path d="M 126.68228 384.48 
L 126.68228 51.84 
" clip-path="url(#p329c433144)" style="fill: none; stroke: #b0b0b0; stroke-width: 0.8; stroke-linecap: square"/>
     </g>
     <g id="line2d_4">
      <g>
       <use xlink:href="#m8e5e4f1d64" x="126.68228" y="384.48" style="stroke: #000000; stroke-width: 0.8"/>
      </g>
     </g>
     <g id="text_2">
      <!-- 9.5 -->
      <g transform="translate(119.18228 398.355)scale(0.1 -0.1)">
       <defs>
        <path id="SimHei-35" d="M 550 1325 
Q 725 650 1150 575 
Q 1575 500 1837 662 
Q 2100 825 2212 1087 
Q 2325 1350 2312 1675 
Q 2300 2000 2137 2225 
Q 1975 2450 1725 2525 
Q 1475 2600 1162 2525 
Q 850 2450 650 2175 
L 225 2225 
Q 275 2375 700 4375 
L 2675 4375 
L 2675 3925 
L 1075 3925 
Q 950 3250 825 2850 
Q 1200 3025 1525 3012 
Q 1850 3000 2150 2862 
Q 2450 2725 2587 2487 
Q 2725 2250 2787 2012 
Q 2850 1775 2837 1500 
Q 2825 1225 2725 937 
Q 2625 650 2425 462 
Q 2225 275 1937 162 
Q 1650 50 1275 75 
Q 900 100 562 350 
Q 225 600 100 1200 
L 550 1325 
z
" transform="scale(0.015625)"/>
       </defs>
       <use xlink:href="#SimHei-39"/>
       <use xlink:href="#SimHei-2e" x="50"/>
       <use xlink:href="#SimHei-35" x="100"/>
      </g>
     </g>
    </g>
    <g id="xtick_3">
     <g id="line2d_5">
      <path d="M 161.073652 384.48 
L 161.073652 51.84 
" clip-path="url(#p329c433144)" style="fill: none; stroke: #b0b0b0; stroke-width: 0.8; stroke-linecap: square"/>
     </g>
     <g id="line2d_6">
      <g>
       <use xlink:href="#m8e5e4f1d64" x="161.073652" y="384.48" style="stroke: #000000; stroke-width: 0.8"/>
      </g>
     </g>
     <g id="text_3">
      <!-- 10.0 -->
      <g transform="translate(151.073652 398.355)scale(0.1 -0.1)">
       <defs>
        <path id="SimHei-31" d="M 1400 3600 
Q 1075 3275 575 2975 
L 575 3450 
Q 1200 3875 1600 4450 
L 1900 4450 
L 1900 150 
L 1400 150 
L 1400 3600 
z
" transform="scale(0.015625)"/>
       </defs>
       <use xlink:href="#SimHei-31"/>
       <use xlink:href="#SimHei-30" x="50"/>
       <use xlink:href="#SimHei-2e" x="100"/>
       <use xlink:href="#SimHei-30" x="150"/>
      </g>
     </g>
    </g>
    <g id="xtick_4">
     <g id="line2d_7">
      <path d="M 195.465023 384.48 
L 195.465023 51.84 
" clip-path="url(#p329c433144)" style="fill: none; stroke: #b0b0b0; stroke-width: 0.8; stroke-linecap: square"/>
     </g>
     <g id="line2d_8">
      <g>
       <use xlink:href="#m8e5e4f1d64" x="195.465023" y="384.48" style="stroke: #000000; stroke-width: 0.8"/>
      </g>
     </g>
     <g id="text_4">
      <!-- 10.5 -->
      <g transform="translate(185.465023 398.355)scale(0.1 -0.1)">
       <use xlink:href="#SimHei-31"/>
       <use xlink:href="#SimHei-30" x="50"/>
       <use xlink:href="#SimHei-2e" x="100"/>
       <use xlink:href="#SimHei-35" x="150"/>
      </g>
     </g>
    </g>
    <g id="xtick_5">
     <g id="line2d_9">
      <path d="M 229.856394 384.48 
L 229.856394 51.84 
" clip-path="url(#p329c433144)" style="fill: none; stroke: #b0b0b0; stroke-width: 0.8; stroke-linecap: square"/>
     </g>
     <g id="line2d_10">
      <g>
       <use xlink:href="#m8e5e4f1d64" x="229.856394" y="384.48" style="stroke: #000000; stroke-width: 0.8"/>
      </g>
     </g>
     <g id="text_5">
      <!-- 11.0 -->
      <g transform="translate(219.856394 398.355)scale(0.1 -0.1)">
       <use xlink:href="#SimHei-31"/>
       <use xlink:href="#SimHei-31" x="50"/>
       <use xlink:href="#SimHei-2e" x="100"/>
       <use xlink:href="#SimHei-30" x="150"/>
      </g>
     </g>
    </g>
    <g id="xtick_6">
     <g id="line2d_11">
      <path d="M 264.247766 384.48 
L 264.247766 51.84 
" clip-path="url(#p329c433144)" style="fill: none; stroke: #b0b0b0; stroke-width: 0.8; stroke-linecap: square"/>
     </g>
     <g id="line2d_12">
      <g>
       <use xlink:href="#m8e5e4f1d64" x="264.247766" y="384.48" style="stroke: #000000; stroke-width: 0.8"/>
      </g>
     </g>
     <g id="text_6">
      <!-- 11.5 -->
      <g transform="translate(254.247766 398.355)scale(0.1 -0.1)">
       <use xlink:href="#SimHei-31"/>
       <use xlink:href="#SimHei-31" x="50"/>
       <use xlink:href="#SimHei-2e" x="100"/>
       <use xlink:href="#SimHei-35" x="150"/>
      </g>
     </g>
    </g>
    <g id="xtick_7">
     <g id="line2d_13">
      <path d="M 298.639137 384.48 
L 298.639137 51.84 
" clip-path="url(#p329c433144)" style="fill: none; stroke: #b0b0b0; stroke-width: 0.8; stroke-linecap: square"/>
     </g>
     <g id="line2d_14">
      <g>
       <use xlink:href="#m8e5e4f1d64" x="298.639137" y="384.48" style="stroke: #000000; stroke-width: 0.8"/>
      </g>
     </g>
     <g id="text_7">
      <!-- 12.0 -->
      <g transform="translate(288.639137 398.355)scale(0.1 -0.1)">
       <defs>
        <path id="SimHei-32" d="M 300 250 
Q 325 625 650 925 
Q 975 1225 1475 1862 
Q 1975 2500 2125 2850 
Q 2275 3200 2237 3450 
Q 2200 3700 2000 3862 
Q 1800 4025 1537 4000 
Q 1275 3975 1037 3800 
Q 800 3625 675 3275 
L 200 3350 
Q 400 3925 712 4187 
Q 1025 4450 1450 4475 
Q 1700 4500 1900 4462 
Q 2100 4425 2312 4287 
Q 2525 4150 2662 3875 
Q 2800 3600 2762 3212 
Q 2725 2825 2375 2287 
Q 2025 1750 1025 600 
L 2825 600 
L 2825 150 
L 300 150 
L 300 250 
z
" transform="scale(0.015625)"/>
       </defs>
       <use xlink:href="#SimHei-31"/>
       <use xlink:href="#SimHei-32" x="50"/>
       <use xlink:href="#SimHei-2e" x="100"/>
       <use xlink:href="#SimHei-30" x="150"/>
      </g>
     </g>
    </g>
    <g id="xtick_8">
     <g id="line2d_15">
      <path d="M 333.030508 384.48 
L 333.030508 51.84 
" clip-path="url(#p329c433144)" style="fill: none; stroke: #b0b0b0; stroke-width: 0.8; stroke-linecap: square"/>
     </g>
     <g id="line2d_16">
      <g>
       <use xlink:href="#m8e5e4f1d64" x="333.030508" y="384.48" style="stroke: #000000; stroke-width: 0.8"/>
      </g>
     </g>
     <g id="text_8">
      <!-- 12.5 -->
      <g transform="translate(323.030508 398.355)scale(0.1 -0.1)">
       <use xlink:href="#SimHei-31"/>
       <use xlink:href="#SimHei-32" x="50"/>
       <use xlink:href="#SimHei-2e" x="100"/>
       <use xlink:href="#SimHei-35" x="150"/>
      </g>
     </g>
    </g>
    <g id="xtick_9">
     <g id="line2d_17">
      <path d="M 367.42188 384.48 
L 367.42188 51.84 
" clip-path="url(#p329c433144)" style="fill: none; stroke: #b0b0b0; stroke-width: 0.8; stroke-linecap: square"/>
     </g>
     <g id="line2d_18">
      <g>
       <use xlink:href="#m8e5e4f1d64" x="367.42188" y="384.48" style="stroke: #000000; stroke-width: 0.8"/>
      </g>
     </g>
     <g id="text_9">
      <!-- 13.0 -->
      <g transform="translate(357.42188 398.355)scale(0.1 -0.1)">
       <defs>
        <path id="SimHei-33" d="M 250 1225 
L 700 1300 
Q 800 975 1025 762 
Q 1250 550 1587 562 
Q 1925 575 2125 837 
Q 2325 1100 2300 1437 
Q 2275 1775 2037 1962 
Q 1800 2150 1275 2225 
L 1275 2550 
Q 1800 2600 2037 2825 
Q 2275 3050 2250 3412 
Q 2225 3775 1925 3937 
Q 1625 4100 1287 3975 
Q 950 3850 750 3275 
L 300 3350 
Q 450 3800 712 4100 
Q 975 4400 1425 4450 
Q 1875 4500 2212 4337 
Q 2550 4175 2687 3837 
Q 2825 3500 2725 3100 
Q 2625 2700 2150 2400 
Q 2500 2250 2687 1950 
Q 2875 1650 2812 1162 
Q 2750 675 2375 375 
Q 2000 75 1525 87 
Q 1050 100 700 387 
Q 350 675 250 1225 
z
" transform="scale(0.015625)"/>
       </defs>
       <use xlink:href="#SimHei-31"/>
       <use xlink:href="#SimHei-33" x="50"/>
       <use xlink:href="#SimHei-2e" x="100"/>
       <use xlink:href="#SimHei-30" x="150"/>
      </g>
     </g>
    </g>
    <g id="xtick_10">
     <g id="line2d_19">
      <path d="M 401.813251 384.48 
L 401.813251 51.84 
" clip-path="url(#p329c433144)" style="fill: none; stroke: #b0b0b0; stroke-width: 0.8; stroke-linecap: square"/>
     </g>
     <g id="line2d_20">
      <g>
       <use xlink:href="#m8e5e4f1d64" x="401.813251" y="384.48" style="stroke: #000000; stroke-width: 0.8"/>
      </g>
     </g>
     <g id="text_10">
      <!-- 13.5 -->
      <g transform="translate(391.813251 398.355)scale(0.1 -0.1)">
       <use xlink:href="#SimHei-31"/>
       <use xlink:href="#SimHei-33" x="50"/>
       <use xlink:href="#SimHei-2e" x="100"/>
       <use xlink:href="#SimHei-35" x="150"/>
      </g>
     </g>
    </g>
    <g id="xtick_11">
     <g id="line2d_21">
      <path d="M 436.204622 384.48 
L 436.204622 51.84 
" clip-path="url(#p329c433144)" style="fill: none; stroke: #b0b0b0; stroke-width: 0.8; stroke-linecap: square"/>
     </g>
     <g id="line2d_22">
      <g>
       <use xlink:href="#m8e5e4f1d64" x="436.204622" y="384.48" style="stroke: #000000; stroke-width: 0.8"/>
      </g>
     </g>
     <g id="text_11">
      <!-- 14.0 -->
      <g transform="translate(426.204622 398.355)scale(0.1 -0.1)">
       <defs>
        <path id="SimHei-34" d="M 2000 1100 
L 75 1100 
L 75 1525 
L 2100 4450 
L 2475 4450 
L 2475 1525 
L 3075 1525 
L 3075 1100 
L 2475 1100 
L 2475 150 
L 2000 150 
L 2000 1100 
z
M 2000 1525 
L 2000 3500 
L 600 1525 
L 2000 1525 
z
" transform="scale(0.015625)"/>
       </defs>
       <use xlink:href="#SimHei-31"/>
       <use xlink:href="#SimHei-34" x="50"/>
       <use xlink:href="#SimHei-2e" x="100"/>
       <use xlink:href="#SimHei-30" x="150"/>
      </g>
     </g>
    </g>
    <g id="xtick_12">
     <g id="line2d_23">
      <path d="M 470.595994 384.48 
L 470.595994 51.84 
" clip-path="url(#p329c433144)" style="fill: none; stroke: #b0b0b0; stroke-width: 0.8; stroke-linecap: square"/>
     </g>
     <g id="line2d_24">
      <g>
       <use xlink:href="#m8e5e4f1d64" x="470.595994" y="384.48" style="stroke: #000000; stroke-width: 0.8"/>
      </g>
     </g>
     <g id="text_12">
      <!-- 14.5 -->
      <g transform="translate(460.595994 398.355)scale(0.1 -0.1)">
       <use xlink:href="#SimHei-31"/>
       <use xlink:href="#SimHei-34" x="50"/>
       <use xlink:href="#SimHei-2e" x="100"/>
       <use xlink:href="#SimHei-35" x="150"/>
      </g>
     </g>
    </g>
    <g id="xtick_13">
     <g id="line2d_25">
      <path d="M 504.987365 384.48 
L 504.987365 51.84 
" clip-path="url(#p329c433144)" style="fill: none; stroke: #b0b0b0; stroke-width: 0.8; stroke-linecap: square"/>
     </g>
     <g id="line2d_26">
      <g>
       <use xlink:href="#m8e5e4f1d64" x="504.987365" y="384.48" style="stroke: #000000; stroke-width: 0.8"/>
      </g>
     </g>
     <g id="text_13">
      <!-- 15.0 -->
      <g transform="translate(494.987365 398.355)scale(0.1 -0.1)">
       <use xlink:href="#SimHei-31"/>
       <use xlink:href="#SimHei-35" x="50"/>
       <use xlink:href="#SimHei-2e" x="100"/>
       <use xlink:href="#SimHei-30" x="150"/>
      </g>
     </g>
    </g>
    <g id="text_14">
     <!-- 时间 -->
     <g transform="translate(285.2 411.612813)scale(0.1 -0.1)">
      <defs>
       <path id="SimHei-65f6" d="M 2525 4575 
Q 2500 3675 2500 2400 
Q 2500 1125 2525 400 
L 2000 400 
L 2000 875 
L 1000 875 
L 1000 50 
L 475 50 
Q 500 1200 500 2350 
Q 500 3525 475 4575 
L 2525 4575 
z
M 4875 3825 
Q 4875 4575 4850 5225 
L 5400 5225 
Q 5375 4575 5375 3825 
Q 5750 3825 6175 3850 
L 6175 3375 
Q 5750 3400 5375 3400 
L 5375 50 
Q 5375 -325 5075 -425 
Q 4775 -525 4300 -575 
Q 4300 -275 4025 0 
Q 4500 -50 4687 -25 
Q 4875 0 4875 300 
L 4875 3400 
Q 3625 3400 2775 3375 
L 2775 3850 
Q 3575 3825 4875 3825 
z
M 2000 1300 
L 2000 2550 
L 1000 2550 
L 1000 1300 
L 2000 1300 
z
M 2000 2975 
L 2000 4150 
L 1000 4150 
L 1000 2975 
L 2000 2975 
z
M 3550 2725 
Q 3875 2200 4175 1600 
Q 3925 1525 3650 1375 
Q 3450 1975 3075 2500 
Q 3300 2600 3550 2725 
z
" transform="scale(0.015625)"/>
       <path id="SimHei-95f4" d="M 4450 3550 
Q 4425 3075 4425 2725 
L 4425 1400 
Q 4425 1075 4450 625 
L 1925 625 
Q 1950 1075 1950 1425 
L 1950 2725 
Q 1950 3075 1925 3550 
L 4450 3550 
z
M 5800 4875 
Q 5775 4400 5775 3925 
L 5775 250 
Q 5800 -325 5462 -450 
Q 5125 -575 4725 -625 
Q 4700 -325 4525 -25 
Q 5000 -50 5137 25 
Q 5275 100 5275 350 
L 5275 4450 
L 3775 4450 
Q 3175 4450 2650 4425 
L 2650 4900 
Q 3175 4875 3775 4875 
L 5800 4875 
z
M 550 -525 
Q 600 -25 600 525 
L 600 3150 
Q 600 3675 550 4025 
L 1125 4025 
Q 1100 3650 1100 3300 
L 1100 500 
Q 1100 0 1125 -525 
L 550 -525 
z
M 3950 1025 
L 3950 1950 
L 2425 1950 
L 2425 1025 
L 3950 1025 
z
M 3950 2350 
L 3950 3150 
L 2425 3150 
L 2425 2350 
L 3950 2350 
z
M 1525 5300 
Q 1750 5000 2225 4350 
Q 1950 4225 1700 4075 
Q 1450 4575 1075 5025 
Q 1350 5225 1525 5300 
z
" transform="scale(0.015625)"/>
      </defs>
      <use xlink:href="#SimHei-65f6"/>
      <use xlink:href="#SimHei-95f4" x="100"/>
     </g>
    </g>
   </g>
   <g id="matplotlib.axis_2">
    <g id="ytick_1">
     <g id="line2d_27">
      <path d="M 72 341.034734 
L 518.4 341.034734 
" clip-path="url(#p329c433144)" style="fill: none; stroke: #b0b0b0; stroke-width: 0.8; stroke-linecap: square"/>
     </g>
     <g id="line2d_28">
      <defs>
       <path id="m18f00ef46b" d="M 0 0 
L -3.5 0 
" style="stroke: #000000; stroke-width: 0.8"/>
      </defs>
      <g>
       <use xlink:href="#m18f00ef46b" x="72" y="341.034734" style="stroke: #000000; stroke-width: 0.8"/>
      </g>
     </g>
     <g id="text_15">
      <!-- 20 -->
      <g transform="translate(55 344.472234)scale(0.1 -0.1)">
       <use xlink:href="#SimHei-32"/>
       <use xlink:href="#SimHei-30" x="50"/>
      </g>
     </g>
    </g>
    <g id="ytick_2">
     <g id="line2d_29">
      <path d="M 72 290.316524 
L 518.4 290.316524 
" clip-path="url(#p329c433144)" style="fill: none; stroke: #b0b0b0; stroke-width: 0.8; stroke-linecap: square"/>
     </g>
     <g id="line2d_30">
      <g>
       <use xlink:href="#m18f00ef46b" x="72" y="290.316524" style="stroke: #000000; stroke-width: 0.8"/>
      </g>
     </g>
     <g id="text_16">
      <!-- 30 -->
      <g transform="translate(55 293.754024)scale(0.1 -0.1)">
       <use xlink:href="#SimHei-33"/>
       <use xlink:href="#SimHei-30" x="50"/>
      </g>
     </g>
    </g>
    <g id="ytick_3">
     <g id="line2d_31">
      <path d="M 72 239.598314 
L 518.4 239.598314 
" clip-path="url(#p329c433144)" style="fill: none; stroke: #b0b0b0; stroke-width: 0.8; stroke-linecap: square"/>
     </g>
     <g id="line2d_32">
      <g>
       <use xlink:href="#m18f00ef46b" x="72" y="239.598314" style="stroke: #000000; stroke-width: 0.8"/>
      </g>
     </g>
     <g id="text_17">
      <!-- 40 -->
      <g transform="translate(55 243.035814)scale(0.1 -0.1)">
       <use xlink:href="#SimHei-34"/>
       <use xlink:href="#SimHei-30" x="50"/>
      </g>
     </g>
    </g>
    <g id="ytick_4">
     <g id="line2d_33">
      <path d="M 72 188.880105 
L 518.4 188.880105 
" clip-path="url(#p329c433144)" style="fill: none; stroke: #b0b0b0; stroke-width: 0.8; stroke-linecap: square"/>
     </g>
     <g id="line2d_34">
      <g>
       <use xlink:href="#m18f00ef46b" x="72" y="188.880105" style="stroke: #000000; stroke-width: 0.8"/>
      </g>
     </g>
     <g id="text_18">
      <!-- 50 -->
      <g transform="translate(55 192.317605)scale(0.1 -0.1)">
       <use xlink:href="#SimHei-35"/>
       <use xlink:href="#SimHei-30" x="50"/>
      </g>
     </g>
    </g>
    <g id="ytick_5">
     <g id="line2d_35">
      <path d="M 72 138.161895 
L 518.4 138.161895 
" clip-path="url(#p329c433144)" style="fill: none; stroke: #b0b0b0; stroke-width: 0.8; stroke-linecap: square"/>
     </g>
     <g id="line2d_36">
      <g>
       <use xlink:href="#m18f00ef46b" x="72" y="138.161895" style="stroke: #000000; stroke-width: 0.8"/>
      </g>
     </g>
     <g id="text_19">
      <!-- 60 -->
      <g transform="translate(55 141.599395)scale(0.1 -0.1)">
       <defs>
        <path id="SimHei-36" d="M 250 1612 
Q 275 1975 387 2225 
Q 500 2475 725 2850 
L 1750 4450 
L 2325 4450 
L 1275 2800 
Q 1950 2975 2350 2750 
Q 2750 2525 2887 2237 
Q 3025 1950 3037 1612 
Q 3050 1275 2937 950 
Q 2825 625 2537 362 
Q 2250 100 1737 75 
Q 1225 50 862 262 
Q 500 475 362 862 
Q 225 1250 250 1612 
z
M 1025 787 
Q 1250 550 1625 525 
Q 2000 500 2250 775 
Q 2500 1050 2500 1575 
Q 2500 2100 2187 2300 
Q 1875 2500 1487 2450 
Q 1100 2400 925 2075 
Q 750 1750 775 1387 
Q 800 1025 1025 787 
z
" transform="scale(0.015625)"/>
       </defs>
       <use xlink:href="#SimHei-36"/>
       <use xlink:href="#SimHei-30" x="50"/>
      </g>
     </g>
    </g>
    <g id="ytick_6">
     <g id="line2d_37">
      <path d="M 72 87.443685 
L 518.4 87.443685 
" clip-path="url(#p329c433144)" style="fill: none; stroke: #b0b0b0; stroke-width: 0.8; stroke-linecap: square"/>
     </g>
     <g id="line2d_38">
      <g>
       <use xlink:href="#m18f00ef46b" x="72" y="87.443685" style="stroke: #000000; stroke-width: 0.8"/>
      </g>
     </g>
     <g id="text_20">
      <!-- 70 -->
      <g transform="translate(55 90.881185)scale(0.1 -0.1)">
       <defs>
        <path id="SimHei-37" d="M 850 150 
Q 1300 2050 2425 3925 
L 275 3925 
L 275 4375 
L 2950 4375 
L 2950 3950 
Q 1775 2050 1400 150 
L 850 150 
z
" transform="scale(0.015625)"/>
       </defs>
       <use xlink:href="#SimHei-37"/>
       <use xlink:href="#SimHei-30" x="50"/>
      </g>
     </g>
    </g>
    <g id="text_21">
     <!-- 高度角 -->
     <g transform="translate(49.75 233.16)rotate(-90)scale(0.1 -0.1)">
      <defs>
       <path id="SimHei-9ad8" d="M 5825 -25 
Q 5850 -400 5550 -500 
Q 5250 -600 4975 -625 
Q 4875 -325 4725 -100 
Q 4975 -100 5175 -87 
Q 5375 -75 5350 250 
L 5350 1825 
L 1100 1825 
L 1100 -575 
L 600 -575 
Q 625 -225 625 850 
Q 625 1950 600 2200 
L 5850 2200 
Q 5825 1850 5825 1425 
L 5825 -25 
z
M 4925 3800 
Q 4900 3475 4900 3175 
Q 4900 2900 4925 2600 
L 1400 2600 
Q 1425 2825 1425 3175 
Q 1425 3525 1400 3800 
L 4925 3800 
z
M 4500 1400 
Q 4475 1125 4475 800 
Q 4475 500 4500 200 
L 1950 200 
Q 2000 500 2000 800 
Q 2000 1125 1950 1400 
L 4500 1400 
z
M 425 4600 
Q 750 4575 1125 4575 
L 2925 4575 
Q 2850 4875 2750 5100 
Q 3050 5125 3350 5200 
Q 3400 4950 3525 4575 
L 5250 4575 
Q 5600 4575 5975 4600 
L 5975 4150 
Q 5600 4175 5050 4175 
L 1150 4175 
Q 750 4175 425 4150 
L 425 4600 
z
M 4450 2975 
L 4450 3425 
L 1900 3425 
L 1900 2975 
L 4450 2975 
z
M 4025 550 
L 4025 1050 
L 2400 1050 
L 2400 550 
L 4025 550 
z
" transform="scale(0.015625)"/>
       <path id="SimHei-5ea6" d="M 1750 1675 
Q 2450 1650 2875 1650 
L 5200 1650 
Q 4975 1250 4650 850 
Q 4325 450 4025 200 
Q 4350 50 4950 -50 
Q 5550 -150 6100 -150 
Q 5950 -300 5825 -650 
Q 5100 -550 4550 -412 
Q 4000 -275 3625 -100 
Q 3100 -325 2587 -462 
Q 2075 -600 1525 -675 
Q 1450 -475 1225 -250 
Q 1675 -250 2250 -125 
Q 2825 0 3250 200 
Q 2825 550 2400 1275 
L 1750 1250 
L 1750 1675 
z
M 2975 5075 
Q 3250 5150 3475 5250 
Q 3625 4975 3775 4525 
L 4700 4525 
Q 4975 4525 5700 4550 
L 5700 4100 
Q 5000 4125 4650 4125 
L 1375 4125 
Q 1375 3000 1350 2312 
Q 1325 1625 1212 950 
Q 1100 275 725 -525 
Q 500 -375 250 -300 
Q 650 400 762 1075 
Q 875 1750 887 2800 
Q 900 3850 875 4525 
L 3200 4525 
Q 3100 4850 2975 5075 
z
M 2475 3300 
Q 2475 3700 2450 3925 
L 2975 3925 
Q 2950 3725 2950 3300 
L 4300 3300 
Q 4300 3700 4275 3950 
L 4800 3950 
Q 4775 3650 4775 3300 
Q 5325 3300 5725 3325 
L 5725 2900 
Q 5350 2925 4775 2925 
Q 4775 2250 4800 1950 
L 2450 1950 
Q 2475 2350 2475 2925 
Q 2175 2925 1600 2900 
L 1600 3325 
Q 2175 3300 2475 3300 
z
M 4300 2350 
L 4300 2925 
L 2950 2925 
L 2950 2350 
L 4300 2350 
z
M 2875 1275 
Q 3200 775 3650 425 
Q 4025 700 4425 1275 
L 2900 1275 
L 2875 1275 
z
" transform="scale(0.015625)"/>
       <path id="SimHei-89d2" d="M 3125 900 
L 1625 900 
Q 1475 125 875 -625 
Q 650 -400 400 -300 
Q 775 50 975 475 
Q 1175 900 1250 1575 
Q 1325 2250 1300 3325 
Q 1100 3125 825 2925 
Q 700 3125 425 3325 
Q 650 3425 1075 3737 
Q 1500 4050 1850 4512 
Q 2200 4975 2350 5275 
Q 2550 5125 2825 5000 
Q 2700 4875 2425 4525 
L 4825 4525 
Q 4700 4375 4050 3475 
L 5600 3475 
Q 5575 2925 5575 2500 
L 5575 25 
Q 5575 -350 5325 -450 
Q 5075 -550 4575 -600 
Q 4500 -325 4325 -50 
Q 4825 -50 4975 0 
Q 5125 50 5100 325 
L 5100 900 
L 3600 900 
L 3600 400 
Q 3600 25 3625 -500 
L 3075 -500 
Q 3125 0 3125 500 
L 3125 900 
z
M 3525 3475 
L 3975 4125 
L 2150 4125 
Q 1825 3775 1475 3475 
L 3525 3475 
z
M 5100 1300 
L 5100 2000 
L 3600 2000 
L 3600 1300 
L 5100 1300 
z
M 5100 2400 
L 5100 3050 
L 3600 3050 
L 3600 2400 
L 5100 2400 
z
M 3125 1300 
L 3125 2000 
L 1750 2000 
Q 1750 1625 1700 1300 
L 3125 1300 
z
M 3125 2400 
L 3125 3050 
L 1775 3050 
L 1775 2400 
L 3125 2400 
z
" transform="scale(0.015625)"/>
      </defs>
      <use xlink:href="#SimHei-9ad8"/>
      <use xlink:href="#SimHei-5ea6" x="100"/>
      <use xlink:href="#SimHei-89d2" x="200"/>
     </g>
    </g>
   </g>
   <g id="line2d_39">
    <path d="M 92.290909 353.138925 
L 99.169183 349.073936 
L 106.047458 345.101329 
L 112.925732 341.224396 
L 119.804006 337.446489 
L 126.68228 333.771015 
L 133.560555 330.201426 
L 140.438829 326.741215 
L 147.317103 323.393905 
L 154.195378 320.163038 
L 161.073652 317.052167 
L 167.951926 314.064843 
L 174.8302 311.2046 
L 181.708475 308.474943 
L 188.586749 305.87933 
L 195.465023 303.42116 
L 202.343297 301.103753 
L 209.221572 298.930331 
L 216.099846 296.904005 
L 222.97812 295.02775 
L 229.856394 293.304391 
L 236.734669 291.736584 
L 243.612943 290.326796 
L 250.491217 289.077288 
L 257.369492 287.990099 
L 264.247766 287.067032 
L 271.12604 286.309635 
L 278.004314 285.719194 
L 284.882589 285.296721 
L 291.760863 285.042944 
L 298.639137 284.958303 
L 305.517411 285.042944 
L 312.395686 285.296721 
L 319.27396 285.719194 
L 326.152234 286.309635 
L 333.030508 287.067032 
L 339.908783 287.990099 
L 346.787057 289.077288 
L 353.665331 290.326796 
L 360.543606 291.736584 
L 367.42188 293.304391 
L 374.300154 295.02775 
L 381.178428 296.904005 
L 388.056703 298.930331 
L 394.934977 301.103753 
L 401.813251 303.42116 
L 408.691525 305.87933 
L 415.5698 308.474943 
L 422.448074 311.2046 
L 429.326348 314.064843 
L 436.204622 317.052167 
L 443.082897 320.163038 
L 449.961171 323.393905 
L 456.839445 326.741215 
L 463.71772 330.201426 
L 470.595994 333.771015 
L 477.474268 337.446489 
L 484.352542 341.224396 
L 491.230817 345.101329 
L 498.109091 349.073936 
" clip-path="url(#p329c433144)" style="fill: none; stroke: #0000ff; stroke-width: 1.5; stroke-linecap: square"/>
   </g>
   <g id="line2d_40">
    <path d="M 92.290909 316.533887 
L 99.169183 312.075585 
L 106.047458 307.706787 
L 112.925732 303.431527 
L 119.804006 299.253956 
L 126.68228 295.178347 
L 133.560555 291.209084 
L 140.438829 287.350656 
L 147.317103 283.607648 
L 154.195378 279.984734 
L 161.073652 276.486659 
L 167.951926 273.118224 
L 174.8302 269.884273 
L 181.708475 266.78967 
L 188.586749 263.839276 
L 195.465023 261.037926 
L 202.343297 258.390399 
L 209.221572 255.901394 
L 216.099846 253.575493 
L 222.97812 251.417132 
L 229.856394 249.430563 
L 236.734669 247.619824 
L 243.612943 245.988703 
L 250.491217 244.540697 
L 257.369492 243.278989 
L 264.247766 242.206407 
L 271.12604 241.325401 
L 278.004314 240.638011 
L 284.882589 240.145851 
L 291.760863 239.850084 
L 298.639137 239.751417 
L 305.517411 239.850084 
L 312.395686 240.145851 
L 319.27396 240.638011 
L 326.152234 241.325401 
L 333.030508 242.206407 
L 339.908783 243.278989 
L 346.787057 244.540697 
L 353.665331 245.988703 
L 360.543606 247.619824 
L 367.42188 249.430563 
L 374.300154 251.417132 
L 381.178428 253.575493 
L 388.056703 255.901394 
L 394.934977 258.390399 
L 401.813251 261.037926 
L 408.691525 263.839276 
L 415.5698 266.78967 
L 422.448074 269.884273 
L 429.326348 273.118224 
L 436.204622 276.486659 
L 443.082897 279.984734 
L 449.961171 283.607648 
L 456.839445 287.350656 
L 463.71772 291.209084 
L 470.595994 295.178347 
L 477.474268 299.253956 
L 484.352542 303.431527 
L 491.230817 307.706787 
L 498.109091 312.075585 
" clip-path="url(#p329c433144)" style="fill: none; stroke-dasharray: 5.55,2.4; stroke-dashoffset: 0; stroke: #008000; stroke-width: 1.5"/>
   </g>
   <g id="line2d_41">
    <path d="M 92.290909 272.981992 
L 99.169183 268.039638 
L 106.047458 263.175944 
L 112.925732 258.395717 
L 119.804006 253.704001 
L 126.68228 249.106087 
L 133.560555 244.607513 
L 140.438829 240.214069 
L 147.317103 235.931795 
L 154.195378 231.766981 
L 161.073652 227.726157 
L 167.951926 223.816083 
L 174.8302 220.043732 
L 181.708475 216.41627 
L 188.586749 212.941025 
L 195.465023 209.625456 
L 202.343297 206.477108 
L 209.221572 203.503564 
L 216.099846 200.712388 
L 222.97812 198.111058 
L 229.856394 195.706899 
L 236.734669 193.507001 
L 243.612943 191.518139 
L 250.491217 189.746688 
L 257.369492 188.198532 
L 264.247766 186.878984 
L 271.12604 185.792701 
L 278.004314 184.943605 
L 284.882589 184.334826 
L 291.760863 183.968636 
L 298.639137 183.846419 
L 305.517411 183.968636 
L 312.395686 184.334826 
L 319.27396 184.943605 
L 326.152234 185.792701 
L 333.030508 186.878984 
L 339.908783 188.198532 
L 346.787057 189.746688 
L 353.665331 191.518139 
L 360.543606 193.507001 
L 367.42188 195.706899 
L 374.300154 198.111058 
L 381.178428 200.712388 
L 388.056703 203.503564 
L 394.934977 206.477108 
L 401.813251 209.625456 
L 408.691525 212.941025 
L 415.5698 216.41627 
L 422.448074 220.043732 
L 429.326348 223.816083 
L 436.204622 227.726157 
L 443.082897 231.766981 
L 449.961171 235.931795 
L 456.839445 240.214069 
L 463.71772 244.607513 
L 470.595994 249.106087 
L 477.474268 253.704001 
L 484.352542 258.395717 
L 491.230817 263.175944 
L 498.109091 268.039638 
" clip-path="url(#p329c433144)" style="fill: none; stroke-dasharray: 9.6,2.4,1.5,2.4; stroke-dashoffset: 0; stroke: #ff0000; stroke-width: 1.5"/>
   </g>
   <g id="line2d_42">
    <path d="M 92.290909 230.430925 
L 99.169183 225.00278 
L 106.047458 219.630455 
L 112.925732 214.318855 
L 119.804006 209.073255 
L 126.68228 203.899333 
L 133.560555 198.803207 
L 140.438829 193.791463 
L 147.317103 188.871193 
L 154.195378 184.050027 
L 161.073652 179.336166 
L 167.951926 174.73841 
L 174.8302 170.266186 
L 181.708475 165.929558 
L 188.586749 161.739245 
L 195.465023 157.706607 
L 202.343297 153.843629 
L 209.221572 150.162874 
L 216.099846 146.677423 
L 222.97812 143.40077 
L 229.856394 140.346701 
L 236.734669 137.529124 
L 243.612943 134.961872 
L 250.491217 132.658465 
L 257.369492 130.631841 
L 264.247766 128.894067 
L 271.12604 127.456038 
L 278.004314 126.327172 
L 284.882589 125.515133 
L 291.760863 125.025588 
L 298.639137 124.862015 
L 305.517411 125.025588 
L 312.395686 125.515133 
L 319.27396 126.327172 
L 326.152234 127.456038 
L 333.030508 128.894067 
L 339.908783 130.631841 
L 346.787057 132.658465 
L 353.665331 134.961872 
L 360.543606 137.529124 
L 367.42188 140.346701 
L 374.300154 143.40077 
L 381.178428 146.677423 
L 388.056703 150.162874 
L 394.934977 153.843629 
L 401.813251 157.706607 
L 408.691525 161.739245 
L 415.5698 165.929558 
L 422.448074 170.266186 
L 429.326348 174.73841 
L 436.204622 179.336166 
L 443.082897 184.050027 
L 449.961171 188.871193 
L 456.839445 193.791463 
L 463.71772 198.803207 
L 470.595994 203.899333 
L 477.474268 209.073255 
L 484.352542 214.318855 
L 491.230817 219.630455 
L 498.109091 225.00278 
" clip-path="url(#p329c433144)" style="fill: none; stroke-dasharray: 1.5,2.475; stroke-dashoffset: 0; stroke: #00bfbf; stroke-width: 1.5"/>
   </g>
   <g id="line2d_43">
    <path d="M 92.290909 202.631571 
L 99.169183 196.909334 
L 106.047458 191.218249 
L 112.925732 185.562274 
L 119.804006 179.945745 
L 126.68228 174.373432 
L 133.560555 168.850594 
L 140.438829 163.383042 
L 147.317103 157.977216 
L 154.195378 152.640265 
L 161.073652 147.380135 
L 167.951926 142.205675 
L 174.8302 137.126747 
L 181.708475 132.15434 
L 188.586749 127.300702 
L 195.465023 122.579464 
L 202.343297 118.00577 
L 209.221572 113.596386 
L 216.099846 109.369792 
L 222.97812 105.346229 
L 229.856394 101.547684 
L 236.734669 97.997781 
L 243.612943 94.721554 
L 250.491217 91.74506 
L 257.369492 89.094821 
L 264.247766 86.797069 
L 271.12604 84.876805 
L 278.004314 83.35672 
L 284.882589 82.256052 
L 291.760863 81.589488 
L 298.639137 81.366252 
L 305.517411 81.589488 
L 312.395686 82.256052 
L 319.27396 83.35672 
L 326.152234 84.876805 
L 333.030508 86.797069 
L 339.908783 89.094821 
L 346.787057 91.74506 
L 353.665331 94.721554 
L 360.543606 97.997781 
L 367.42188 101.547684 
L 374.300154 105.346229 
L 381.178428 109.369792 
L 388.056703 113.596386 
L 394.934977 118.00577 
L 401.813251 122.579464 
L 408.691525 127.300702 
L 415.5698 132.15434 
L 422.448074 137.126747 
L 429.326348 142.205675 
L 436.204622 147.380135 
L 443.082897 152.640265 
L 449.961171 157.977216 
L 456.839445 163.383042 
L 463.71772 168.850594 
L 470.595994 174.373432 
L 477.474268 179.945745 
L 484.352542 185.562274 
L 491.230817 191.218249 
L 498.109091 196.909334 
" clip-path="url(#p329c433144)" style="fill: none; stroke: #bf00bf; stroke-width: 1.5; stroke-linecap: square"/>
   </g>
   <g id="line2d_44">
    <path d="M 92.290909 194.356877 
L 99.169183 188.562816 
L 106.047458 182.790851 
L 112.925732 177.044391 
L 119.804006 171.32719 
L 126.68228 165.6434 
L 133.560555 159.997628 
L 140.438829 154.395009 
L 147.317103 148.841284 
L 154.195378 143.342894 
L 161.073652 137.907085 
L 167.951926 132.542035 
L 174.8302 127.256994 
L 181.708475 122.062444 
L 188.586749 116.970285 
L 195.465023 111.994033 
L 202.343297 107.14904 
L 209.221572 102.452723 
L 216.099846 97.924794 
L 222.97812 93.58747 
L 229.856394 89.46563 
L 236.734669 85.586894 
L 243.612943 81.981539 
L 250.491217 78.682217 
L 257.369492 75.723366 
L 264.247766 73.140277 
L 271.12604 70.967744 
L 278.004314 69.238355 
L 284.882589 67.980501 
L 291.760863 67.21634 
L 298.639137 66.96 
L 305.517411 67.21634 
L 312.395686 67.980501 
L 319.27396 69.238355 
L 326.152234 70.967744 
L 333.030508 73.140277 
L 339.908783 75.723366 
L 346.787057 78.682217 
L 353.665331 81.981539 
L 360.543606 85.586894 
L 367.42188 89.46563 
L 374.300154 93.58747 
L 381.178428 97.924794 
L 388.056703 102.452723 
L 394.934977 107.14904 
L 401.813251 111.994033 
L 408.691525 116.970285 
L 415.5698 122.062444 
L 422.448074 127.256994 
L 429.326348 132.542035 
L 436.204622 137.907085 
L 443.082897 143.342894 
L 449.961171 148.841284 
L 456.839445 154.395009 
L 463.71772 159.997628 
L 470.595994 165.6434 
L 477.474268 171.32719 
L 484.352542 177.044391 
L 491.230817 182.790851 
L 498.109091 188.562816 
" clip-path="url(#p329c433144)" style="fill: none; stroke-dasharray: 5.55,2.4; stroke-dashoffset: 0; stroke: #bfbf00; stroke-width: 1.5"/>
   </g>
   <g id="line2d_45">
    <path d="M 92.290909 205.491779 
L 99.169183 199.796883 
L 106.047458 194.136093 
L 112.925732 188.513523 
L 119.804006 182.933674 
L 126.68228 177.401484 
L 133.560555 171.922387 
L 140.438829 166.502369 
L 147.317103 161.148042 
L 154.195378 155.86672 
L 161.073652 150.666502 
L 167.951926 145.556366 
L 174.8302 140.546269 
L 181.708475 135.647248 
L 188.586749 130.871534 
L 195.465023 126.232654 
L 202.343297 121.745532 
L 209.221572 117.42657 
L 216.099846 113.293707 
L 222.97812 109.366428 
L 229.856394 105.665711 
L 236.734669 102.21389 
L 243.612943 99.034407 
L 250.491217 96.151431 
L 257.369492 93.589325 
L 264.247766 91.371962 
L 271.12604 89.521894 
L 278.004314 88.059428 
L 284.882589 87.00166 
L 291.760863 86.361575 
L 298.639137 86.147291 
L 305.517411 86.361575 
L 312.395686 87.00166 
L 319.27396 88.059428 
L 326.152234 89.521894 
L 333.030508 91.371962 
L 339.908783 93.589325 
L 346.787057 96.151431 
L 353.665331 99.034407 
L 360.543606 102.21389 
L 367.42188 105.665711 
L 374.300154 109.366428 
L 381.178428 113.293707 
L 388.056703 117.42657 
L 394.934977 121.745532 
L 401.813251 126.232654 
L 408.691525 130.871534 
L 415.5698 135.647248 
L 422.448074 140.546269 
L 429.326348 145.556366 
L 436.204622 150.666502 
L 443.082897 155.86672 
L 449.961171 161.148042 
L 456.839445 166.502369 
L 463.71772 171.922387 
L 470.595994 177.401484 
L 477.474268 182.933674 
L 484.352542 188.513523 
L 491.230817 194.136093 
L 498.109091 199.796883 
" clip-path="url(#p329c433144)" style="fill: none; stroke-dasharray: 9.6,2.4,1.5,2.4; stroke-dashoffset: 0; stroke: #000000; stroke-width: 1.5"/>
   </g>
   <g id="line2d_46">
    <path d="M 92.290909 234.655096 
L 99.169183 229.274749 
L 106.047458 223.953218 
L 112.925732 218.695458 
L 119.804006 213.506785 
L 126.68228 208.392906 
L 133.560555 203.359945 
L 140.438829 198.414475 
L 147.317103 193.563547 
L 154.195378 188.814717 
L 161.073652 184.17607 
L 167.951926 179.656245 
L 174.8302 175.26445 
L 181.708475 171.01047 
L 188.586749 166.904667 
L 195.465023 162.957968 
L 202.343297 159.181833 
L 209.221572 155.588209 
L 216.099846 152.189458 
L 222.97812 148.998259 
L 229.856394 146.027485 
L 236.734669 143.290047 
L 243.612943 140.79871 
L 250.491217 138.565878 
L 257.369492 136.603359 
L 264.247766 134.922112 
L 271.12604 133.531983 
L 278.004314 132.441452 
L 284.882589 131.657397 
L 291.760863 131.18489 
L 298.639137 131.027038 
L 305.517411 131.18489 
L 312.395686 131.657397 
L 319.27396 132.441452 
L 326.152234 133.531983 
L 333.030508 134.922112 
L 339.908783 136.603359 
L 346.787057 138.565878 
L 353.665331 140.79871 
L 360.543606 143.290047 
L 367.42188 146.027485 
L 374.300154 148.998259 
L 381.178428 152.189458 
L 388.056703 155.588209 
L 394.934977 159.181833 
L 401.813251 162.957968 
L 408.691525 166.904667 
L 415.5698 171.01047 
L 422.448074 175.26445 
L 429.326348 179.656245 
L 436.204622 184.17607 
L 443.082897 188.814717 
L 449.961171 193.563547 
L 456.839445 198.414475 
L 463.71772 203.359945 
L 470.595994 208.392906 
L 477.474268 213.506785 
L 484.352542 218.695458 
L 491.230817 223.953218 
L 498.109091 229.274749 
" clip-path="url(#p329c433144)" style="fill: none; stroke-dasharray: 1.5,2.475; stroke-dashoffset: 0; stroke: #0000ff; stroke-width: 1.5"/>
   </g>
   <g id="line2d_47">
    <path d="M 92.290909 278.27104 
L 99.169183 273.38854 
L 106.047458 268.586571 
L 112.925732 263.869866 
L 119.804006 259.243378 
L 126.68228 254.712285 
L 133.560555 250.281996 
L 140.438829 245.958147 
L 147.317103 241.746601 
L 154.195378 237.653441 
L 161.073652 233.684966 
L 167.951926 229.847673 
L 174.8302 226.148241 
L 181.708475 222.593511 
L 188.586749 219.190454 
L 195.465023 215.946141 
L 202.343297 212.867699 
L 209.221572 209.962266 
L 216.099846 207.236938 
L 222.97812 204.698706 
L 229.856394 202.354396 
L 236.734669 200.210594 
L 243.612943 198.273575 
L 250.491217 196.549225 
L 257.369492 195.042964 
L 264.247766 193.759675 
L 271.12604 192.703627 
L 278.004314 191.878412 
L 284.882589 191.286889 
L 291.760863 190.931135 
L 298.639137 190.812409 
L 305.517411 190.931135 
L 312.395686 191.286889 
L 319.27396 191.878412 
L 326.152234 192.703627 
L 333.030508 193.759675 
L 339.908783 195.042964 
L 346.787057 196.549225 
L 353.665331 198.273575 
L 360.543606 200.210594 
L 367.42188 202.354396 
L 374.300154 204.698706 
L 381.178428 207.236938 
L 388.056703 209.962266 
L 394.934977 212.867699 
L 401.813251 215.946141 
L 408.691525 219.190454 
L 415.5698 222.593511 
L 422.448074 226.148241 
L 429.326348 229.847673 
L 436.204622 233.684966 
L 443.082897 237.653441 
L 449.961171 241.746601 
L 456.839445 245.958147 
L 463.71772 250.281996 
L 470.595994 254.712285 
L 477.474268 259.243378 
L 484.352542 263.869866 
L 491.230817 268.586571 
L 498.109091 273.38854 
" clip-path="url(#p329c433144)" style="fill: none; stroke: #008000; stroke-width: 1.5; stroke-linecap: square"/>
   </g>
   <g id="line2d_48">
    <path d="M 92.290909 322.879798 
L 99.169183 318.490409 
L 106.047458 314.191364 
L 112.925732 309.986568 
L 119.804006 305.880034 
L 126.68228 301.875876 
L 133.560555 297.978311 
L 140.438829 294.191645 
L 147.317103 290.520265 
L 154.195378 286.96863 
L 161.073652 283.541258 
L 167.951926 280.242709 
L 174.8302 277.077571 
L 181.708475 274.050438 
L 188.586749 271.165892 
L 195.465023 268.428478 
L 202.343297 265.842678 
L 209.221572 263.412888 
L 216.099846 261.143385 
L 222.97812 259.038299 
L 229.856394 257.101584 
L 236.734669 255.336983 
L 243.612943 253.748002 
L 250.491217 252.337876 
L 257.369492 251.109538 
L 264.247766 250.065594 
L 271.12604 249.208299 
L 278.004314 248.539529 
L 284.882589 248.060764 
L 291.760863 247.773074 
L 298.639137 247.677105 
L 305.517411 247.773074 
L 312.395686 248.060764 
L 319.27396 248.539529 
L 326.152234 249.208299 
L 333.030508 250.065594 
L 339.908783 251.109538 
L 346.787057 252.337876 
L 353.665331 253.748002 
L 360.543606 255.336983 
L 367.42188 257.101584 
L 374.300154 259.038299 
L 381.178428 261.143385 
L 388.056703 263.412888 
L 394.934977 265.842678 
L 401.813251 268.428478 
L 408.691525 271.165892 
L 415.5698 274.050438 
L 422.448074 277.077571 
L 429.326348 280.242709 
L 436.204622 283.541258 
L 443.082897 286.96863 
L 449.961171 290.520265 
L 456.839445 294.191645 
L 463.71772 297.978311 
L 470.595994 301.875876 
L 477.474268 305.880034 
L 484.352542 309.986568 
L 491.230817 314.191364 
L 498.109091 318.490409 
" clip-path="url(#p329c433144)" style="fill: none; stroke-dasharray: 5.55,2.4; stroke-dashoffset: 0; stroke: #ff0000; stroke-width: 1.5"/>
   </g>
   <g id="line2d_49">
    <path d="M 92.290909 357.932042 
L 99.169183 353.917978 
L 106.047458 349.996352 
L 112.925732 346.170365 
L 119.804006 342.443267 
L 126.68228 338.818359 
L 133.560555 335.29898 
L 140.438829 331.888505 
L 147.317103 328.590332 
L 154.195378 325.407873 
L 161.073652 322.344547 
L 167.951926 319.403763 
L 174.8302 316.588913 
L 181.708475 313.903353 
L 188.586749 311.350393 
L 195.465023 308.933279 
L 202.343297 306.655178 
L 209.221572 304.519163 
L 216.099846 302.528192 
L 222.97812 300.685096 
L 229.856394 298.992558 
L 236.734669 297.453096 
L 243.612943 296.069049 
L 250.491217 294.842558 
L 257.369492 293.775554 
L 264.247766 292.869739 
L 271.12604 292.126579 
L 278.004314 291.547287 
L 284.882589 291.132818 
L 291.760863 290.88386 
L 298.639137 290.800828 
L 305.517411 290.88386 
L 312.395686 291.132818 
L 319.27396 291.547287 
L 326.152234 292.126579 
L 333.030508 292.869739 
L 339.908783 293.775554 
L 346.787057 294.842558 
L 353.665331 296.069049 
L 360.543606 297.453096 
L 367.42188 298.992558 
L 374.300154 300.685096 
L 381.178428 302.528192 
L 388.056703 304.519163 
L 394.934977 306.655178 
L 401.813251 308.933279 
L 408.691525 311.350393 
L 415.5698 313.903353 
L 422.448074 316.588913 
L 429.326348 319.403763 
L 436.204622 322.344547 
L 443.082897 325.407873 
L 449.961171 328.590332 
L 456.839445 331.888505 
L 463.71772 335.29898 
L 470.595994 338.818359 
L 477.474268 342.443267 
L 484.352542 346.170365 
L 491.230817 349.996352 
L 498.109091 353.917978 
" clip-path="url(#p329c433144)" style="fill: none; stroke-dasharray: 9.6,2.4,1.5,2.4; stroke-dashoffset: 0; stroke: #00bfbf; stroke-width: 1.5"/>
   </g>
   <g id="line2d_50">
    <path d="M 92.290909 369.36 
L 99.169183 365.467082 
L 106.047458 361.666484 
L 112.925732 357.961184 
L 119.804006 354.354201 
L 126.68228 350.848589 
L 133.560555 347.447431 
L 140.438829 344.153828 
L 147.317103 340.970896 
L 154.195378 337.901754 
L 161.073652 334.949516 
L 167.951926 332.117278 
L 174.8302 329.40811 
L 181.708475 326.825041 
L 188.586749 324.371049 
L 195.465023 322.049047 
L 202.343297 319.861868 
L 209.221572 317.812253 
L 216.099846 315.902834 
L 222.97812 314.136124 
L 229.856394 312.514497 
L 236.734669 311.040179 
L 243.612943 309.715232 
L 250.491217 308.541539 
L 257.369492 307.520796 
L 264.247766 306.654496 
L 271.12604 305.943922 
L 278.004314 305.390137 
L 284.882589 304.993975 
L 291.760863 304.756036 
L 298.639137 304.676683 
L 305.517411 304.756036 
L 312.395686 304.993975 
L 319.27396 305.390137 
L 326.152234 305.943922 
L 333.030508 306.654496 
L 339.908783 307.520796 
L 346.787057 308.541539 
L 353.665331 309.715232 
L 360.543606 311.040179 
L 367.42188 312.514497 
L 374.300154 314.136124 
L 381.178428 315.902834 
L 388.056703 317.812253 
L 394.934977 319.861868 
L 401.813251 322.049047 
L 408.691525 324.371049 
L 415.5698 326.825041 
L 422.448074 329.40811 
L 429.326348 332.117278 
L 436.204622 334.949516 
L 443.082897 337.901754 
L 449.961171 340.970896 
L 456.839445 344.153828 
L 463.71772 347.447431 
L 470.595994 350.848589 
L 477.474268 354.354201 
L 484.352542 357.961184 
L 491.230817 361.666484 
L 498.109091 365.467082 
" clip-path="url(#p329c433144)" style="fill: none; stroke-dasharray: 1.5,2.475; stroke-dashoffset: 0; stroke: #bf00bf; stroke-width: 1.5"/>
   </g>
   <g id="patch_3">
    <path d="M 72 384.48 
L 72 51.84 
" style="fill: none; stroke: #000000; stroke-width: 0.8; stroke-linejoin: miter; stroke-linecap: square"/>
   </g>
   <g id="patch_4">
    <path d="M 518.4 384.48 
L 518.4 51.84 
" style="fill: none; stroke: #000000; stroke-width: 0.8; stroke-linejoin: miter; stroke-linecap: square"/>
   </g>
   <g id="patch_5">
    <path d="M 72 384.48 
L 518.4 384.48 
" style="fill: none; stroke: #000000; stroke-width: 0.8; stroke-linejoin: miter; stroke-linecap: square"/>
   </g>
   <g id="patch_6">
    <path d="M 72 51.84 
L 518.4 51.84 
" style="fill: none; stroke: #000000; stroke-width: 0.8; stroke-linejoin: miter; stroke-linecap: square"/>
   </g>
   <g id="text_22">
    <!-- 太阳的高度角角和各月21号的时间关系 -->
    <g transform="translate(193.2 45.84)scale(0.12 -0.12)">
     <defs>
      <path id="SimHei-592a" d="M 2750 3500 
Q 2800 4450 2775 5200 
Q 2975 5150 3475 5125 
Q 3400 4925 3362 4437 
Q 3325 3950 3325 3500 
L 4825 3500 
Q 5325 3500 5775 3525 
L 5775 3025 
Q 5325 3050 4800 3050 
L 3450 3050 
Q 3725 2025 4437 1200 
Q 5150 375 6075 25 
Q 5800 -225 5675 -475 
Q 4575 150 3962 950 
Q 3350 1750 3150 2475 
Q 2775 1250 1987 500 
Q 1200 -250 600 -525 
Q 475 -350 225 -125 
Q 1000 175 1787 1000 
Q 2575 1825 2725 3050 
L 1450 3050 
Q 925 3050 500 3025 
L 500 3525 
Q 950 3500 1450 3500 
L 2750 3500 
z
M 2500 925 
Q 3050 425 3450 -125 
Q 3200 -275 3050 -450 
Q 2575 175 2125 550 
Q 2325 725 2500 925 
z
" transform="scale(0.015625)"/>
      <path id="SimHei-9633" d="M 5850 4775 
Q 5825 4325 5825 3925 
L 5825 550 
Q 5825 150 5850 -400 
L 5350 -400 
L 5350 300 
L 3550 300 
L 3550 -450 
L 3050 -450 
Q 3075 100 3075 475 
L 3075 3925 
Q 3075 4325 3050 4775 
L 5850 4775 
z
M 2675 4925 
Q 2525 4450 2387 4037 
Q 2250 3625 2050 2850 
Q 2375 2425 2525 2062 
Q 2675 1700 2650 1300 
Q 2625 900 2337 737 
Q 2050 575 1550 525 
Q 1500 900 1350 1025 
Q 1850 1025 2025 1162 
Q 2200 1300 2175 1575 
Q 2150 1850 1975 2162 
Q 1800 2475 1525 2775 
Q 1925 4075 2050 4550 
L 1100 4550 
L 1100 -600 
L 625 -600 
Q 650 -50 650 500 
L 650 3775 
Q 650 4475 625 4925 
L 2675 4925 
z
M 5350 2700 
L 5350 4375 
L 3550 4375 
L 3550 2700 
L 5350 2700 
z
M 5350 675 
L 5350 2300 
L 3550 2300 
L 3550 675 
L 5350 675 
z
" transform="scale(0.015625)"/>
      <path id="SimHei-7684" d="M 2100 4975 
Q 1975 4750 1750 3950 
L 2875 3950 
Q 2850 3525 2850 2875 
L 2850 675 
Q 2850 300 2875 -400 
L 2375 -400 
L 2375 100 
L 1100 100 
L 1100 -450 
L 600 -450 
Q 625 350 625 550 
L 625 2850 
Q 625 3525 600 3950 
L 1325 3950 
Q 1450 4525 1525 5150 
Q 1875 5025 2100 4975 
z
M 5825 3075 
Q 5800 1550 5700 175 
Q 5650 -275 5225 -425 
Q 4800 -575 4275 -625 
Q 4250 -350 4050 -50 
Q 4550 -75 4837 -25 
Q 5125 25 5200 200 
Q 5275 375 5312 1225 
Q 5350 2075 5375 3600 
L 3925 3600 
Q 3725 3125 3350 2475 
Q 3175 2650 2925 2750 
Q 3150 3050 3350 3475 
Q 3550 3900 3700 4400 
Q 3850 4900 3875 5175 
Q 4225 5025 4475 4950 
Q 4350 4750 4262 4512 
Q 4175 4275 4075 4050 
L 5850 4050 
Q 5825 3525 5825 3075 
z
M 2375 525 
L 2375 1850 
L 1100 1850 
L 1100 525 
L 2375 525 
z
M 2375 2275 
L 2375 3525 
L 1100 3525 
L 1100 2275 
L 2375 2275 
z
M 4350 2050 
Q 4500 1750 4700 1275 
Q 4525 1200 4225 1025 
Q 4050 1500 3900 1837 
Q 3750 2175 3600 2400 
Q 3775 2500 4050 2650 
L 4350 2050 
z
" transform="scale(0.015625)"/>
      <path id="SimHei-548c" d="M 5875 4200 
Q 5850 3700 5850 3275 
L 5850 700 
Q 5850 250 5875 -25 
L 5375 -25 
L 5375 575 
L 4175 575 
L 4175 -75 
L 3700 -75 
Q 3725 500 3725 625 
L 3725 3275 
Q 3725 3700 3700 4200 
L 5875 4200 
z
M 3275 4450 
Q 3050 4450 2250 4325 
L 2250 3200 
L 2625 3200 
Q 3000 3200 3425 3225 
L 3425 2775 
Q 3000 2800 2650 2800 
L 2250 2800 
L 2250 225 
Q 2250 -200 2275 -550 
L 1775 -550 
Q 1800 -150 1800 225 
L 1800 1850 
Q 1425 1150 675 250 
Q 550 425 275 600 
Q 825 1125 1237 1812 
Q 1650 2500 1700 2800 
L 1250 2800 
Q 700 2800 450 2775 
L 450 3225 
Q 725 3200 1250 3200 
L 1800 3200 
L 1800 4250 
Q 1475 4200 775 4125 
Q 725 4375 625 4575 
Q 1100 4600 1825 4700 
Q 2550 4800 3050 5000 
Q 3100 4725 3275 4450 
z
M 5375 975 
L 5375 3775 
L 4175 3775 
L 4175 975 
L 5375 975 
z
M 3075 1000 
Q 2750 1625 2325 2100 
Q 2475 2200 2700 2400 
Q 3175 1875 3500 1325 
Q 3250 1175 3075 1000 
z
" transform="scale(0.015625)"/>
      <path id="SimHei-5404" d="M 5100 4425 
Q 4850 4000 4525 3600 
Q 4200 3200 3675 2750 
Q 4050 2500 4750 2325 
Q 5450 2150 6050 2125 
Q 5825 1825 5775 1600 
Q 5050 1750 4412 1962 
Q 3775 2175 3300 2475 
Q 2750 2150 2000 1875 
Q 1250 1600 550 1425 
Q 475 1625 275 1850 
Q 900 1950 1662 2200 
Q 2425 2450 2950 2750 
Q 2525 3150 2100 3900 
Q 1900 3575 1675 3300 
Q 1450 3025 1250 2800 
Q 1050 3000 850 3100 
Q 1200 3400 1587 3950 
Q 1975 4500 2175 5225 
Q 2450 5075 2725 5000 
Q 2600 4850 2375 4425 
L 5100 4425 
z
M 4975 1675 
Q 4950 1125 4950 400 
Q 4950 -325 4975 -575 
L 4475 -575 
L 4475 -225 
L 2050 -225 
L 2050 -625 
L 1550 -625 
Q 1575 -275 1575 400 
Q 1575 1075 1550 1675 
L 4975 1675 
z
M 4475 200 
L 4475 1250 
L 2050 1250 
L 2050 200 
L 4475 200 
z
M 3325 3000 
Q 3875 3450 4300 4025 
L 2500 4025 
Q 2975 3275 3325 3000 
z
" transform="scale(0.015625)"/>
      <path id="SimHei-6708" d="M 5250 4825 
Q 5200 4225 5200 3750 
L 5200 200 
Q 5200 -275 4950 -375 
Q 4700 -475 3975 -525 
Q 3925 -225 3750 50 
Q 4300 25 4512 50 
Q 4725 75 4725 400 
L 4725 1600 
L 1850 1600 
Q 1725 775 1450 225 
Q 1175 -325 900 -575 
Q 700 -400 400 -325 
Q 800 25 1037 512 
Q 1275 1000 1337 1475 
Q 1400 1950 1400 2525 
L 1400 3625 
Q 1400 4175 1375 4825 
L 5250 4825 
z
M 4725 3400 
L 4725 4450 
L 1875 4450 
L 1875 3400 
L 4725 3400 
z
M 4725 2000 
L 4725 3025 
L 1875 3025 
L 1875 2000 
L 4725 2000 
z
" transform="scale(0.015625)"/>
      <path id="SimHei-53f7" d="M 5025 4925 
Q 5000 4550 5000 4075 
Q 5000 3600 5025 3175 
L 1400 3175 
Q 1425 3525 1425 4000 
Q 1425 4500 1400 4925 
L 5025 4925 
z
M 5175 2625 
Q 5650 2625 6025 2650 
L 6025 2200 
Q 5650 2225 5175 2225 
L 2450 2225 
Q 2350 1875 2225 1450 
L 5175 1450 
Q 5100 1050 5062 775 
Q 5025 500 4950 112 
Q 4875 -275 4650 -412 
Q 4425 -550 3225 -625 
Q 3125 -350 2975 -50 
Q 3875 -75 4112 -50 
Q 4350 -25 4425 212 
Q 4500 450 4575 1025 
L 1600 1025 
Q 1825 1625 1950 2225 
L 1350 2225 
Q 825 2225 375 2200 
L 375 2650 
Q 825 2625 1350 2625 
L 5175 2625 
z
M 4525 3575 
L 4525 4525 
L 1900 4525 
L 1900 3575 
L 4525 3575 
z
" transform="scale(0.015625)"/>
      <path id="SimHei-5173" d="M 4675 4850 
Q 4525 4675 4362 4375 
Q 4200 4075 4075 3825 
L 4625 3825 
Q 5150 3825 5550 3850 
L 5550 3375 
Q 5225 3400 4700 3400 
L 3400 3400 
L 3400 2150 
L 4975 2150 
Q 5475 2150 5875 2175 
L 5875 1700 
Q 5475 1725 5025 1725 
L 3500 1725 
Q 4250 450 6000 75 
Q 5775 -175 5600 -525 
Q 4025 0 3225 1300 
Q 2800 200 875 -600 
Q 775 -350 500 -150 
Q 2425 375 2875 1725 
L 1550 1725 
Q 975 1725 600 1700 
L 600 2150 
Q 875 2125 1450 2125 
L 2925 2125 
L 2925 3400 
L 1750 3400 
Q 1275 3400 900 3375 
L 900 3850 
Q 1275 3825 1775 3825 
L 3575 3825 
Q 3925 4625 4075 5150 
Q 4325 5000 4675 4850 
z
M 2125 5125 
Q 2450 4725 2800 4175 
Q 2500 4025 2325 3875 
Q 2025 4450 1725 4825 
Q 1950 4975 2125 5125 
z
" transform="scale(0.015625)"/>
      <path id="SimHei-7cfb" d="M 5300 5200 
Q 5450 4950 5725 4675 
Q 4975 4650 4437 4587 
Q 3900 4525 3125 4450 
Q 3250 4325 3475 4225 
Q 3150 4025 2837 3762 
Q 2525 3500 2225 3275 
L 3475 3275 
Q 4100 3700 4525 4050 
Q 4775 3850 5125 3700 
Q 4775 3550 4450 3375 
Q 4125 3200 3387 2737 
Q 2650 2275 2125 1975 
Q 3600 2050 4875 2100 
Q 4750 2225 4225 2625 
Q 4475 2725 4650 2875 
Q 4950 2650 5337 2312 
Q 5725 1975 6075 1650 
Q 5775 1475 5600 1325 
Q 5400 1575 5225 1725 
Q 4550 1700 3625 1650 
L 3625 150 
Q 3625 -325 3387 -412 
Q 3150 -500 2525 -600 
Q 2475 -300 2300 -25 
Q 2875 -25 3012 12 
Q 3150 50 3150 300 
L 3150 1650 
Q 1625 1625 1075 1525 
Q 1000 1775 900 2050 
Q 1450 2100 1875 2300 
Q 2300 2500 2900 2900 
Q 2325 2900 2037 2875 
Q 1750 2850 1400 2800 
Q 1325 3075 1250 3325 
Q 1675 3325 2100 3662 
Q 2525 4000 2750 4400 
Q 1350 4350 925 4300 
Q 850 4550 750 4750 
Q 2150 4750 3250 4850 
Q 4350 4950 5300 5200 
z
M 4625 1250 
Q 4925 1025 5325 737 
Q 5725 450 6000 175 
Q 5800 0 5600 -225 
Q 5275 125 4925 400 
Q 4575 675 4275 875 
Q 4500 1050 4625 1250 
z
M 2200 875 
Q 1900 725 1537 375 
Q 1175 25 800 -300 
Q 575 -75 375 25 
Q 1075 450 1675 1225 
Q 1900 1050 2200 875 
z
" transform="scale(0.015625)"/>
     </defs>
     <use xlink:href="#SimHei-592a"/>
     <use xlink:href="#SimHei-9633" x="100"/>
     <use xlink:href="#SimHei-7684" x="200"/>
     <use xlink:href="#SimHei-9ad8" x="300"/>
     <use xlink:href="#SimHei-5ea6" x="400"/>
     <use xlink:href="#SimHei-89d2" x="500"/>
     <use xlink:href="#SimHei-89d2" x="600"/>
     <use xlink:href="#SimHei-548c" x="700"/>
     <use xlink:href="#SimHei-5404" x="800"/>
     <use xlink:href="#SimHei-6708" x="900"/>
     <use xlink:href="#SimHei-32" x="1000"/>
     <use xlink:href="#SimHei-31" x="1050"/>
     <use xlink:href="#SimHei-53f7" x="1100"/>
     <use xlink:href="#SimHei-7684" x="1200"/>
     <use xlink:href="#SimHei-65f6" x="1300"/>
     <use xlink:href="#SimHei-95f4" x="1400"/>
     <use xlink:href="#SimHei-5173" x="1500"/>
     <use xlink:href="#SimHei-7cfb" x="1600"/>
    </g>
   </g>
   <g id="legend_1">
    <g id="patch_7">
     <path d="M 474 158.4525 
L 514.2 158.4525 
Q 515.4 158.4525 515.4 157.2525 
L 515.4 56.04 
Q 515.4 54.84 514.2 54.84 
L 474 54.84 
Q 472.8 54.84 472.8 56.04 
L 472.8 157.2525 
Q 472.8 158.4525 474 158.4525 
z
" style="fill: #ffffff; opacity: 0.8; stroke: #cccccc; stroke-linejoin: miter"/>
    </g>
    <g id="line2d_51">
     <path d="M 475.2 59.874375 
L 481.2 59.874375 
L 487.2 59.874375 
" style="fill: none; stroke: #0000ff; stroke-width: 1.5; stroke-linecap: square"/>
    </g>
    <g id="text_23">
     <!-- 月份=1 -->
     <g transform="translate(492 61.974375)scale(0.06 -0.06)">
      <defs>
       <path id="SimHei-4efd" d="M 4750 5100 
Q 4875 4375 5250 3650 
Q 5625 2925 6200 2450 
Q 6025 2375 5775 2075 
Q 5600 2275 5350 2575 
Q 5300 2275 5275 1312 
Q 5250 350 5187 25 
Q 5125 -300 4850 -400 
Q 4575 -500 4075 -550 
Q 4000 -250 3875 0 
Q 4400 -25 4575 25 
Q 4750 75 4775 587 
Q 4800 1100 4825 2250 
L 3700 2250 
Q 3675 1300 3425 650 
Q 3175 0 2375 -625 
Q 2175 -350 2000 -225 
Q 2750 225 2987 800 
Q 3225 1375 3225 2250 
Q 3000 2250 2675 2225 
L 2675 2575 
Q 2475 2300 2150 1950 
Q 2000 2150 1750 2300 
Q 2875 3275 3225 4875 
Q 3450 4775 3750 4675 
Q 3625 4400 3425 3887 
Q 3225 3375 2775 2700 
Q 3050 2675 3400 2675 
L 5300 2675 
Q 4575 3625 4275 4975 
Q 4575 5025 4750 5100 
z
M 225 2525 
Q 575 2875 1025 3687 
Q 1475 4500 1650 5225 
Q 1975 5075 2200 4975 
Q 2050 4750 1600 3775 
L 1600 625 
Q 1600 75 1625 -575 
L 1100 -575 
Q 1125 50 1125 625 
L 1125 2925 
Q 775 2400 575 2175 
Q 425 2350 225 2525 
z
" transform="scale(0.015625)"/>
       <path id="SimHei-3d" d="M 2975 2900 
L 125 2900 
L 125 3300 
L 2975 3300 
L 2975 2900 
z
M 2975 1375 
L 125 1375 
L 125 1775 
L 2975 1775 
L 2975 1375 
z
" transform="scale(0.015625)"/>
      </defs>
      <use xlink:href="#SimHei-6708"/>
      <use xlink:href="#SimHei-4efd" x="100"/>
      <use xlink:href="#SimHei-3d" x="200"/>
      <use xlink:href="#SimHei-31" x="250"/>
     </g>
    </g>
    <g id="line2d_52">
     <path d="M 475.2 68.35875 
L 481.2 68.35875 
L 487.2 68.35875 
" style="fill: none; stroke-dasharray: 5.55,2.4; stroke-dashoffset: 0; stroke: #008000; stroke-width: 1.5"/>
    </g>
    <g id="text_24">
     <!-- 月份=2 -->
     <g transform="translate(492 70.45875)scale(0.06 -0.06)">
      <use xlink:href="#SimHei-6708"/>
      <use xlink:href="#SimHei-4efd" x="100"/>
      <use xlink:href="#SimHei-3d" x="200"/>
      <use xlink:href="#SimHei-32" x="250"/>
     </g>
    </g>
    <g id="line2d_53">
     <path d="M 475.2 76.843125 
L 481.2 76.843125 
L 487.2 76.843125 
" style="fill: none; stroke-dasharray: 9.6,2.4,1.5,2.4; stroke-dashoffset: 0; stroke: #ff0000; stroke-width: 1.5"/>
    </g>
    <g id="text_25">
     <!-- 月份=3 -->
     <g transform="translate(492 78.943125)scale(0.06 -0.06)">
      <use xlink:href="#SimHei-6708"/>
      <use xlink:href="#SimHei-4efd" x="100"/>
      <use xlink:href="#SimHei-3d" x="200"/>
      <use xlink:href="#SimHei-33" x="250"/>
     </g>
    </g>
    <g id="line2d_54">
     <path d="M 475.2 85.3275 
L 481.2 85.3275 
L 487.2 85.3275 
" style="fill: none; stroke-dasharray: 1.5,2.475; stroke-dashoffset: 0; stroke: #00bfbf; stroke-width: 1.5"/>
    </g>
    <g id="text_26">
     <!-- 月份=4 -->
     <g transform="translate(492 87.4275)scale(0.06 -0.06)">
      <use xlink:href="#SimHei-6708"/>
      <use xlink:href="#SimHei-4efd" x="100"/>
      <use xlink:href="#SimHei-3d" x="200"/>
      <use xlink:href="#SimHei-34" x="250"/>
     </g>
    </g>
    <g id="line2d_55">
     <path d="M 475.2 93.811875 
L 481.2 93.811875 
L 487.2 93.811875 
" style="fill: none; stroke: #bf00bf; stroke-width: 1.5; stroke-linecap: square"/>
    </g>
    <g id="text_27">
     <!-- 月份=5 -->
     <g transform="translate(492 95.911875)scale(0.06 -0.06)">
      <use xlink:href="#SimHei-6708"/>
      <use xlink:href="#SimHei-4efd" x="100"/>
      <use xlink:href="#SimHei-3d" x="200"/>
      <use xlink:href="#SimHei-35" x="250"/>
     </g>
    </g>
    <g id="line2d_56">
     <path d="M 475.2 102.29625 
L 481.2 102.29625 
L 487.2 102.29625 
" style="fill: none; stroke-dasharray: 5.55,2.4; stroke-dashoffset: 0; stroke: #bfbf00; stroke-width: 1.5"/>
    </g>
    <g id="text_28">
     <!-- 月份=6 -->
     <g transform="translate(492 104.39625)scale(0.06 -0.06)">
      <use xlink:href="#SimHei-6708"/>
      <use xlink:href="#SimHei-4efd" x="100"/>
      <use xlink:href="#SimHei-3d" x="200"/>
      <use xlink:href="#SimHei-36" x="250"/>
     </g>
    </g>
    <g id="line2d_57">
     <path d="M 475.2 110.780625 
L 481.2 110.780625 
L 487.2 110.780625 
" style="fill: none; stroke-dasharray: 9.6,2.4,1.5,2.4; stroke-dashoffset: 0; stroke: #000000; stroke-width: 1.5"/>
    </g>
    <g id="text_29">
     <!-- 月份=7 -->
     <g transform="translate(492 112.880625)scale(0.06 -0.06)">
      <use xlink:href="#SimHei-6708"/>
      <use xlink:href="#SimHei-4efd" x="100"/>
      <use xlink:href="#SimHei-3d" x="200"/>
      <use xlink:href="#SimHei-37" x="250"/>
     </g>
    </g>
    <g id="line2d_58">
     <path d="M 475.2 119.265 
L 481.2 119.265 
L 487.2 119.265 
" style="fill: none; stroke-dasharray: 1.5,2.475; stroke-dashoffset: 0; stroke: #0000ff; stroke-width: 1.5"/>
    </g>
    <g id="text_30">
     <!-- 月份=8 -->
     <g transform="translate(492 121.365)scale(0.06 -0.06)">
      <defs>
       <path id="SimHei-38" d="M 175 1375 
Q 175 1675 325 1962 
Q 475 2250 825 2425 
Q 525 2600 425 2812 
Q 325 3025 312 3300 
Q 300 3575 387 3775 
Q 475 3975 650 4150 
Q 825 4325 1037 4387 
Q 1250 4450 1500 4450 
Q 1750 4450 1950 4400 
Q 2150 4350 2375 4187 
Q 2600 4025 2700 3725 
Q 2800 3425 2687 3025 
Q 2575 2625 2100 2400 
Q 2525 2275 2700 2012 
Q 2875 1750 2875 1375 
Q 2875 1000 2762 775 
Q 2650 550 2512 400 
Q 2375 250 2137 162 
Q 1900 75 1537 75 
Q 1175 75 912 162 
Q 650 250 475 425 
Q 300 600 237 837 
Q 175 1075 175 1375 
z
M 687 1400 
Q 675 1100 787 875 
Q 900 650 1200 587 
Q 1500 525 1825 600 
Q 2150 675 2275 950 
Q 2400 1225 2362 1500 
Q 2325 1775 2050 1962 
Q 1775 2150 1450 2125 
Q 1125 2100 912 1900 
Q 700 1700 687 1400 
z
M 775 3350 
Q 775 3100 950 2875 
Q 1125 2650 1500 2650 
Q 1875 2650 2062 2875 
Q 2250 3100 2237 3412 
Q 2225 3725 2012 3875 
Q 1800 4025 1437 4000 
Q 1075 3975 925 3787 
Q 775 3600 775 3350 
z
" transform="scale(0.015625)"/>
      </defs>
      <use xlink:href="#SimHei-6708"/>
      <use xlink:href="#SimHei-4efd" x="100"/>
      <use xlink:href="#SimHei-3d" x="200"/>
      <use xlink:href="#SimHei-38" x="250"/>
     </g>
    </g>
    <g id="line2d_59">
     <path d="M 475.2 127.749375 
L 481.2 127.749375 
L 487.2 127.749375 
" style="fill: none; stroke: #008000; stroke-width: 1.5; stroke-linecap: square"/>
    </g>
    <g id="text_31">
     <!-- 月份=9 -->
     <g transform="translate(492 129.849375)scale(0.06 -0.06)">
      <use xlink:href="#SimHei-6708"/>
      <use xlink:href="#SimHei-4efd" x="100"/>
      <use xlink:href="#SimHei-3d" x="200"/>
      <use xlink:href="#SimHei-39" x="250"/>
     </g>
    </g>
    <g id="line2d_60">
     <path d="M 475.2 136.23375 
L 481.2 136.23375 
L 487.2 136.23375 
" style="fill: none; stroke-dasharray: 5.55,2.4; stroke-dashoffset: 0; stroke: #ff0000; stroke-width: 1.5"/>
    </g>
    <g id="text_32">
     <!-- 月份=10 -->
     <g transform="translate(492 138.33375)scale(0.06 -0.06)">
      <use xlink:href="#SimHei-6708"/>
      <use xlink:href="#SimHei-4efd" x="100"/>
      <use xlink:href="#SimHei-3d" x="200"/>
      <use xlink:href="#SimHei-31" x="250"/>
      <use xlink:href="#SimHei-30" x="300"/>
     </g>
    </g>
    <g id="line2d_61">
     <path d="M 475.2 144.718125 
L 481.2 144.718125 
L 487.2 144.718125 
" style="fill: none; stroke-dasharray: 9.6,2.4,1.5,2.4; stroke-dashoffset: 0; stroke: #00bfbf; stroke-width: 1.5"/>
    </g>
    <g id="text_33">
     <!-- 月份=11 -->
     <g transform="translate(492 146.818125)scale(0.06 -0.06)">
      <use xlink:href="#SimHei-6708"/>
      <use xlink:href="#SimHei-4efd" x="100"/>
      <use xlink:href="#SimHei-3d" x="200"/>
      <use xlink:href="#SimHei-31" x="250"/>
      <use xlink:href="#SimHei-31" x="300"/>
     </g>
    </g>
    <g id="line2d_62">
     <path d="M 475.2 153.2025 
L 481.2 153.2025 
L 487.2 153.2025 
" style="fill: none; stroke-dasharray: 1.5,2.475; stroke-dashoffset: 0; stroke: #bf00bf; stroke-width: 1.5"/>
    </g>
    <g id="text_34">
     <!-- 月份=12 -->
     <g transform="translate(492 155.3025)scale(0.06 -0.06)">
      <use xlink:href="#SimHei-6708"/>
      <use xlink:href="#SimHei-4efd" x="100"/>
      <use xlink:href="#SimHei-3d" x="200"/>
      <use xlink:href="#SimHei-31" x="250"/>
      <use xlink:href="#SimHei-32" x="300"/>
     </g>
    </g>
   </g>
  </g>
 </g>
 <defs>
  <clipPath id="p329c433144">
   <rect x="72" y="51.84" width="446.4" height="332.64"/>
  </clipPath>
 </defs>
</svg>
