<?xml version="1.0" encoding="utf-8" standalone="no"?>
<!DOCTYPE svg PUBLIC "-//W3C//DTD SVG 1.1//EN"
  "http://www.w3.org/Graphics/SVG/1.1/DTD/svg11.dtd">
<svg xmlns:xlink="http://www.w3.org/1999/xlink" width="576pt" height="432pt" viewBox="0 0 576 432" xmlns="http://www.w3.org/2000/svg" version="1.1">
 <metadata>
  <rdf:RDF xmlns:dc="http://purl.org/dc/elements/1.1/" xmlns:cc="http://creativecommons.org/ns#" xmlns:rdf="http://www.w3.org/1999/02/22-rdf-syntax-ns#">
   <cc:Work>
    <dc:type rdf:resource="http://purl.org/dc/dcmitype/StillImage"/>
    <dc:date>2023-09-04T05:01:55.541646</dc:date>
    <dc:format>image/svg+xml</dc:format>
    <dc:creator>
     <cc:Agent>
      <dc:title>Matplotlib v3.5.2, https://matplotlib.org/</dc:title>
     </cc:Agent>
    </dc:creator>
   </cc:Work>
  </rdf:RDF>
 </metadata>
 <defs>
  <style type="text/css">*{stroke-linejoin: round; stroke-linecap: butt}</style>
 </defs>
 <g id="figure_1">
  <g id="patch_1">
   <path d="M 0 432 
L 576 432 
L 576 0 
L 0 0 
z
" style="fill: #ffffff"/>
  </g>
  <g id="axes_1">
   <g id="patch_2">
    <path d="M 72 384.48 
L 518.4 384.48 
L 518.4 51.84 
L 72 51.84 
z
" style="fill: #ffffff"/>
   </g>
   <g id="matplotlib.axis_1">
    <g id="xtick_1">
     <g id="line2d_1">
      <path d="M 127.828659 384.48 
L 127.828659 51.84 
" clip-path="url(#p3443dcdc51)" style="fill: none; stroke: #b0b0b0; stroke-width: 0.8; stroke-linecap: square"/>
     </g>
     <g id="line2d_2">
      <defs>
       <path id="m9d83d18d4e" d="M 0 0 
L 0 3.5 
" style="stroke: #000000; stroke-width: 0.8"/>
      </defs>
      <g>
       <use xlink:href="#m9d83d18d4e" x="127.828659" y="384.48" style="stroke: #000000; stroke-width: 0.8"/>
      </g>
     </g>
     <g id="text_1">
      <!-- 50 -->
      <g transform="translate(122.828659 398.355)scale(0.1 -0.1)">
       <defs>
        <path id="SimHei-35" d="M 550 1325 
Q 725 650 1150 575 
Q 1575 500 1837 662 
Q 2100 825 2212 1087 
Q 2325 1350 2312 1675 
Q 2300 2000 2137 2225 
Q 1975 2450 1725 2525 
Q 1475 2600 1162 2525 
Q 850 2450 650 2175 
L 225 2225 
Q 275 2375 700 4375 
L 2675 4375 
L 2675 3925 
L 1075 3925 
Q 950 3250 825 2850 
Q 1200 3025 1525 3012 
Q 1850 3000 2150 2862 
Q 2450 2725 2587 2487 
Q 2725 2250 2787 2012 
Q 2850 1775 2837 1500 
Q 2825 1225 2725 937 
Q 2625 650 2425 462 
Q 2225 275 1937 162 
Q 1650 50 1275 75 
Q 900 100 562 350 
Q 225 600 100 1200 
L 550 1325 
z
" transform="scale(0.015625)"/>
        <path id="SimHei-30" d="M 225 2537 
Q 250 3200 412 3587 
Q 575 3975 875 4225 
Q 1175 4475 1612 4475 
Q 2050 4475 2375 4112 
Q 2700 3750 2800 3200 
Q 2900 2650 2862 1937 
Q 2825 1225 2612 775 
Q 2400 325 1975 150 
Q 1550 -25 1125 187 
Q 700 400 525 750 
Q 350 1100 275 1487 
Q 200 1875 225 2537 
z
M 750 2687 
Q 675 2000 800 1462 
Q 925 925 1212 700 
Q 1500 475 1800 612 
Q 2100 750 2237 1162 
Q 2375 1575 2375 2062 
Q 2375 2550 2337 2950 
Q 2300 3350 2112 3675 
Q 1925 4000 1612 4012 
Q 1300 4025 1062 3700 
Q 825 3375 750 2687 
z
" transform="scale(0.015625)"/>
       </defs>
       <use xlink:href="#SimHei-35"/>
       <use xlink:href="#SimHei-30" x="50"/>
      </g>
     </g>
    </g>
    <g id="xtick_2">
     <g id="line2d_3">
      <path d="M 185.147612 384.48 
L 185.147612 51.84 
" clip-path="url(#p3443dcdc51)" style="fill: none; stroke: #b0b0b0; stroke-width: 0.8; stroke-linecap: square"/>
     </g>
     <g id="line2d_4">
      <g>
       <use xlink:href="#m9d83d18d4e" x="185.147612" y="384.48" style="stroke: #000000; stroke-width: 0.8"/>
      </g>
     </g>
     <g id="text_2">
      <!-- 100 -->
      <g transform="translate(177.647612 398.355)scale(0.1 -0.1)">
       <defs>
        <path id="SimHei-31" d="M 1400 3600 
Q 1075 3275 575 2975 
L 575 3450 
Q 1200 3875 1600 4450 
L 1900 4450 
L 1900 150 
L 1400 150 
L 1400 3600 
z
" transform="scale(0.015625)"/>
       </defs>
       <use xlink:href="#SimHei-31"/>
       <use xlink:href="#SimHei-30" x="50"/>
       <use xlink:href="#SimHei-30" x="100"/>
      </g>
     </g>
    </g>
    <g id="xtick_3">
     <g id="line2d_5">
      <path d="M 242.466564 384.48 
L 242.466564 51.84 
" clip-path="url(#p3443dcdc51)" style="fill: none; stroke: #b0b0b0; stroke-width: 0.8; stroke-linecap: square"/>
     </g>
     <g id="line2d_6">
      <g>
       <use xlink:href="#m9d83d18d4e" x="242.466564" y="384.48" style="stroke: #000000; stroke-width: 0.8"/>
      </g>
     </g>
     <g id="text_3">
      <!-- 150 -->
      <g transform="translate(234.966564 398.355)scale(0.1 -0.1)">
       <use xlink:href="#SimHei-31"/>
       <use xlink:href="#SimHei-35" x="50"/>
       <use xlink:href="#SimHei-30" x="100"/>
      </g>
     </g>
    </g>
    <g id="xtick_4">
     <g id="line2d_7">
      <path d="M 299.785516 384.48 
L 299.785516 51.84 
" clip-path="url(#p3443dcdc51)" style="fill: none; stroke: #b0b0b0; stroke-width: 0.8; stroke-linecap: square"/>
     </g>
     <g id="line2d_8">
      <g>
       <use xlink:href="#m9d83d18d4e" x="299.785516" y="384.48" style="stroke: #000000; stroke-width: 0.8"/>
      </g>
     </g>
     <g id="text_4">
      <!-- 200 -->
      <g transform="translate(292.285516 398.355)scale(0.1 -0.1)">
       <defs>
        <path id="SimHei-32" d="M 300 250 
Q 325 625 650 925 
Q 975 1225 1475 1862 
Q 1975 2500 2125 2850 
Q 2275 3200 2237 3450 
Q 2200 3700 2000 3862 
Q 1800 4025 1537 4000 
Q 1275 3975 1037 3800 
Q 800 3625 675 3275 
L 200 3350 
Q 400 3925 712 4187 
Q 1025 4450 1450 4475 
Q 1700 4500 1900 4462 
Q 2100 4425 2312 4287 
Q 2525 4150 2662 3875 
Q 2800 3600 2762 3212 
Q 2725 2825 2375 2287 
Q 2025 1750 1025 600 
L 2825 600 
L 2825 150 
L 300 150 
L 300 250 
z
" transform="scale(0.015625)"/>
       </defs>
       <use xlink:href="#SimHei-32"/>
       <use xlink:href="#SimHei-30" x="50"/>
       <use xlink:href="#SimHei-30" x="100"/>
      </g>
     </g>
    </g>
    <g id="xtick_5">
     <g id="line2d_9">
      <path d="M 357.104468 384.48 
L 357.104468 51.84 
" clip-path="url(#p3443dcdc51)" style="fill: none; stroke: #b0b0b0; stroke-width: 0.8; stroke-linecap: square"/>
     </g>
     <g id="line2d_10">
      <g>
       <use xlink:href="#m9d83d18d4e" x="357.104468" y="384.48" style="stroke: #000000; stroke-width: 0.8"/>
      </g>
     </g>
     <g id="text_5">
      <!-- 250 -->
      <g transform="translate(349.604468 398.355)scale(0.1 -0.1)">
       <use xlink:href="#SimHei-32"/>
       <use xlink:href="#SimHei-35" x="50"/>
       <use xlink:href="#SimHei-30" x="100"/>
      </g>
     </g>
    </g>
    <g id="xtick_6">
     <g id="line2d_11">
      <path d="M 414.423421 384.48 
L 414.423421 51.84 
" clip-path="url(#p3443dcdc51)" style="fill: none; stroke: #b0b0b0; stroke-width: 0.8; stroke-linecap: square"/>
     </g>
     <g id="line2d_12">
      <g>
       <use xlink:href="#m9d83d18d4e" x="414.423421" y="384.48" style="stroke: #000000; stroke-width: 0.8"/>
      </g>
     </g>
     <g id="text_6">
      <!-- 300 -->
      <g transform="translate(406.923421 398.355)scale(0.1 -0.1)">
       <defs>
        <path id="SimHei-33" d="M 250 1225 
L 700 1300 
Q 800 975 1025 762 
Q 1250 550 1587 562 
Q 1925 575 2125 837 
Q 2325 1100 2300 1437 
Q 2275 1775 2037 1962 
Q 1800 2150 1275 2225 
L 1275 2550 
Q 1800 2600 2037 2825 
Q 2275 3050 2250 3412 
Q 2225 3775 1925 3937 
Q 1625 4100 1287 3975 
Q 950 3850 750 3275 
L 300 3350 
Q 450 3800 712 4100 
Q 975 4400 1425 4450 
Q 1875 4500 2212 4337 
Q 2550 4175 2687 3837 
Q 2825 3500 2725 3100 
Q 2625 2700 2150 2400 
Q 2500 2250 2687 1950 
Q 2875 1650 2812 1162 
Q 2750 675 2375 375 
Q 2000 75 1525 87 
Q 1050 100 700 387 
Q 350 675 250 1225 
z
" transform="scale(0.015625)"/>
       </defs>
       <use xlink:href="#SimHei-33"/>
       <use xlink:href="#SimHei-30" x="50"/>
       <use xlink:href="#SimHei-30" x="100"/>
      </g>
     </g>
    </g>
    <g id="xtick_7">
     <g id="line2d_13">
      <path d="M 471.742373 384.48 
L 471.742373 51.84 
" clip-path="url(#p3443dcdc51)" style="fill: none; stroke: #b0b0b0; stroke-width: 0.8; stroke-linecap: square"/>
     </g>
     <g id="line2d_14">
      <g>
       <use xlink:href="#m9d83d18d4e" x="471.742373" y="384.48" style="stroke: #000000; stroke-width: 0.8"/>
      </g>
     </g>
     <g id="text_7">
      <!-- 350 -->
      <g transform="translate(464.242373 398.355)scale(0.1 -0.1)">
       <use xlink:href="#SimHei-33"/>
       <use xlink:href="#SimHei-35" x="50"/>
       <use xlink:href="#SimHei-30" x="100"/>
      </g>
     </g>
    </g>
    <g id="text_8">
     <!-- 时间（s） -->
     <g transform="translate(272.7 411.612813)scale(0.1 -0.1)">
      <defs>
       <path id="SimHei-65f6" d="M 2525 4575 
Q 2500 3675 2500 2400 
Q 2500 1125 2525 400 
L 2000 400 
L 2000 875 
L 1000 875 
L 1000 50 
L 475 50 
Q 500 1200 500 2350 
Q 500 3525 475 4575 
L 2525 4575 
z
M 4875 3825 
Q 4875 4575 4850 5225 
L 5400 5225 
Q 5375 4575 5375 3825 
Q 5750 3825 6175 3850 
L 6175 3375 
Q 5750 3400 5375 3400 
L 5375 50 
Q 5375 -325 5075 -425 
Q 4775 -525 4300 -575 
Q 4300 -275 4025 0 
Q 4500 -50 4687 -25 
Q 4875 0 4875 300 
L 4875 3400 
Q 3625 3400 2775 3375 
L 2775 3850 
Q 3575 3825 4875 3825 
z
M 2000 1300 
L 2000 2550 
L 1000 2550 
L 1000 1300 
L 2000 1300 
z
M 2000 2975 
L 2000 4150 
L 1000 4150 
L 1000 2975 
L 2000 2975 
z
M 3550 2725 
Q 3875 2200 4175 1600 
Q 3925 1525 3650 1375 
Q 3450 1975 3075 2500 
Q 3300 2600 3550 2725 
z
" transform="scale(0.015625)"/>
       <path id="SimHei-95f4" d="M 4450 3550 
Q 4425 3075 4425 2725 
L 4425 1400 
Q 4425 1075 4450 625 
L 1925 625 
Q 1950 1075 1950 1425 
L 1950 2725 
Q 1950 3075 1925 3550 
L 4450 3550 
z
M 5800 4875 
Q 5775 4400 5775 3925 
L 5775 250 
Q 5800 -325 5462 -450 
Q 5125 -575 4725 -625 
Q 4700 -325 4525 -25 
Q 5000 -50 5137 25 
Q 5275 100 5275 350 
L 5275 4450 
L 3775 4450 
Q 3175 4450 2650 4425 
L 2650 4900 
Q 3175 4875 3775 4875 
L 5800 4875 
z
M 550 -525 
Q 600 -25 600 525 
L 600 3150 
Q 600 3675 550 4025 
L 1125 4025 
Q 1100 3650 1100 3300 
L 1100 500 
Q 1100 0 1125 -525 
L 550 -525 
z
M 3950 1025 
L 3950 1950 
L 2425 1950 
L 2425 1025 
L 3950 1025 
z
M 3950 2350 
L 3950 3150 
L 2425 3150 
L 2425 2350 
L 3950 2350 
z
M 1525 5300 
Q 1750 5000 2225 4350 
Q 1950 4225 1700 4075 
Q 1450 4575 1075 5025 
Q 1350 5225 1525 5300 
z
" transform="scale(0.015625)"/>
       <path id="SimHei-ff08" d="M 5425 5100 
L 5700 4775 
Q 4275 3725 4325 2350 
Q 4350 1025 5675 50 
L 5400 -275 
Q 3875 825 3925 2500 
Q 3925 3875 5425 5100 
z
" transform="scale(0.015625)"/>
       <path id="SimHei-73" d="M 2750 900 
Q 2750 500 2437 287 
Q 2125 75 1650 75 
Q 1050 75 725 312 
Q 400 550 400 1000 
L 900 1000 
Q 900 700 1112 600 
Q 1325 500 1625 500 
Q 1925 500 2075 612 
Q 2225 725 2225 900 
Q 2225 1025 2100 1150 
Q 1975 1275 1475 1350 
Q 900 1425 687 1637 
Q 475 1850 475 2200 
Q 475 2500 762 2737 
Q 1050 2975 1600 2975 
Q 2100 2975 2387 2750 
Q 2675 2525 2675 2150 
L 2175 2150 
Q 2175 2375 2012 2462 
Q 1850 2550 1600 2550 
Q 1275 2550 1137 2437 
Q 1000 2325 1000 2175 
Q 1000 2000 1125 1900 
Q 1250 1800 1650 1750 
Q 2300 1650 2525 1437 
Q 2750 1225 2750 900 
z
" transform="scale(0.015625)"/>
       <path id="SimHei-ff09" d="M 1000 5100 
Q 2500 3875 2500 2500 
Q 2550 825 1025 -275 
L 750 50 
Q 2075 1025 2100 2350 
Q 2150 3725 725 4775 
L 1000 5100 
z
" transform="scale(0.015625)"/>
      </defs>
      <use xlink:href="#SimHei-65f6"/>
      <use xlink:href="#SimHei-95f4" x="100"/>
      <use xlink:href="#SimHei-ff08" x="200"/>
      <use xlink:href="#SimHei-73" x="300"/>
      <use xlink:href="#SimHei-ff09" x="350"/>
     </g>
    </g>
   </g>
   <g id="matplotlib.axis_2">
    <g id="ytick_1">
     <g id="line2d_15">
      <path d="M 72 340.908042 
L 518.4 340.908042 
" clip-path="url(#p3443dcdc51)" style="fill: none; stroke: #b0b0b0; stroke-width: 0.8; stroke-linecap: square"/>
     </g>
     <g id="line2d_16">
      <defs>
       <path id="m1305c9e78e" d="M 0 0 
L -3.5 0 
" style="stroke: #000000; stroke-width: 0.8"/>
      </defs>
      <g>
       <use xlink:href="#m1305c9e78e" x="72" y="340.908042" style="stroke: #000000; stroke-width: 0.8"/>
      </g>
     </g>
     <g id="text_9">
      <!-- 50 -->
      <g transform="translate(55 344.345542)scale(0.1 -0.1)">
       <use xlink:href="#SimHei-35"/>
       <use xlink:href="#SimHei-30" x="50"/>
      </g>
     </g>
    </g>
    <g id="ytick_2">
     <g id="line2d_17">
      <path d="M 72 269.671293 
L 518.4 269.671293 
" clip-path="url(#p3443dcdc51)" style="fill: none; stroke: #b0b0b0; stroke-width: 0.8; stroke-linecap: square"/>
     </g>
     <g id="line2d_18">
      <g>
       <use xlink:href="#m1305c9e78e" x="72" y="269.671293" style="stroke: #000000; stroke-width: 0.8"/>
      </g>
     </g>
     <g id="text_10">
      <!-- 100 -->
      <g transform="translate(50 273.108793)scale(0.1 -0.1)">
       <use xlink:href="#SimHei-31"/>
       <use xlink:href="#SimHei-30" x="50"/>
       <use xlink:href="#SimHei-30" x="100"/>
      </g>
     </g>
    </g>
    <g id="ytick_3">
     <g id="line2d_19">
      <path d="M 72 198.434544 
L 518.4 198.434544 
" clip-path="url(#p3443dcdc51)" style="fill: none; stroke: #b0b0b0; stroke-width: 0.8; stroke-linecap: square"/>
     </g>
     <g id="line2d_20">
      <g>
       <use xlink:href="#m1305c9e78e" x="72" y="198.434544" style="stroke: #000000; stroke-width: 0.8"/>
      </g>
     </g>
     <g id="text_11">
      <!-- 150 -->
      <g transform="translate(50 201.872044)scale(0.1 -0.1)">
       <use xlink:href="#SimHei-31"/>
       <use xlink:href="#SimHei-35" x="50"/>
       <use xlink:href="#SimHei-30" x="100"/>
      </g>
     </g>
    </g>
    <g id="ytick_4">
     <g id="line2d_21">
      <path d="M 72 127.197795 
L 518.4 127.197795 
" clip-path="url(#p3443dcdc51)" style="fill: none; stroke: #b0b0b0; stroke-width: 0.8; stroke-linecap: square"/>
     </g>
     <g id="line2d_22">
      <g>
       <use xlink:href="#m1305c9e78e" x="72" y="127.197795" style="stroke: #000000; stroke-width: 0.8"/>
      </g>
     </g>
     <g id="text_12">
      <!-- 200 -->
      <g transform="translate(50 130.635295)scale(0.1 -0.1)">
       <use xlink:href="#SimHei-32"/>
       <use xlink:href="#SimHei-30" x="50"/>
       <use xlink:href="#SimHei-30" x="100"/>
      </g>
     </g>
    </g>
    <g id="ytick_5">
     <g id="line2d_23">
      <path d="M 72 55.961046 
L 518.4 55.961046 
" clip-path="url(#p3443dcdc51)" style="fill: none; stroke: #b0b0b0; stroke-width: 0.8; stroke-linecap: square"/>
     </g>
     <g id="line2d_24">
      <g>
       <use xlink:href="#m1305c9e78e" x="72" y="55.961046" style="stroke: #000000; stroke-width: 0.8"/>
      </g>
     </g>
     <g id="text_13">
      <!-- 250 -->
      <g transform="translate(50 59.398546)scale(0.1 -0.1)">
       <use xlink:href="#SimHei-32"/>
       <use xlink:href="#SimHei-35" x="50"/>
       <use xlink:href="#SimHei-30" x="100"/>
      </g>
     </g>
    </g>
    <g id="text_14">
     <!-- 温度(ºC) -->
     <g transform="translate(44.75 240.66)rotate(-90)scale(0.1 -0.1)">
      <defs>
       <path id="SimHei-6e29" d="M 5625 1925 
Q 5600 1475 5600 0 
Q 5875 0 6125 25 
L 6125 -425 
Q 5725 -400 5325 -400 
L 2275 -400 
Q 1825 -400 1400 -425 
L 1400 25 
Q 1725 0 2000 0 
Q 2000 1425 1975 1925 
L 5625 1925 
z
M 5325 2525 
L 2250 2525 
Q 2275 2950 2275 3675 
Q 2275 4400 2250 4925 
L 5325 4925 
L 5325 2525 
z
M 4875 2950 
L 4875 3500 
L 2725 3500 
L 2725 2950 
L 4875 2950 
z
M 1550 1775 
Q 1375 1300 1162 600 
Q 950 -100 800 -500 
Q 550 -275 275 -175 
Q 525 250 787 950 
Q 1050 1650 1100 2075 
Q 1300 1875 1550 1775 
z
M 4875 3925 
L 4875 4450 
L 2725 4450 
L 2725 3925 
L 4875 3925 
z
M 5150 0 
L 5150 1500 
L 4525 1500 
L 4525 0 
L 5150 0 
z
M 4075 0 
L 4075 1500 
L 3475 1500 
L 3475 0 
L 4075 0 
z
M 3075 0 
L 3075 1500 
L 2475 1500 
L 2475 0 
L 3075 0 
z
M 875 5050 
Q 1475 4600 1825 4325 
Q 1675 4100 1525 3925 
Q 1300 4200 575 4700 
Q 750 4875 875 5050 
z
M 575 3625 
Q 1000 3400 1550 2900 
Q 1350 2750 1225 2550 
Q 975 2825 325 3300 
Q 425 3400 575 3625 
z
" transform="scale(0.015625)"/>
       <path id="SimHei-5ea6" d="M 1750 1675 
Q 2450 1650 2875 1650 
L 5200 1650 
Q 4975 1250 4650 850 
Q 4325 450 4025 200 
Q 4350 50 4950 -50 
Q 5550 -150 6100 -150 
Q 5950 -300 5825 -650 
Q 5100 -550 4550 -412 
Q 4000 -275 3625 -100 
Q 3100 -325 2587 -462 
Q 2075 -600 1525 -675 
Q 1450 -475 1225 -250 
Q 1675 -250 2250 -125 
Q 2825 0 3250 200 
Q 2825 550 2400 1275 
L 1750 1250 
L 1750 1675 
z
M 2975 5075 
Q 3250 5150 3475 5250 
Q 3625 4975 3775 4525 
L 4700 4525 
Q 4975 4525 5700 4550 
L 5700 4100 
Q 5000 4125 4650 4125 
L 1375 4125 
Q 1375 3000 1350 2312 
Q 1325 1625 1212 950 
Q 1100 275 725 -525 
Q 500 -375 250 -300 
Q 650 400 762 1075 
Q 875 1750 887 2800 
Q 900 3850 875 4525 
L 3200 4525 
Q 3100 4850 2975 5075 
z
M 2475 3300 
Q 2475 3700 2450 3925 
L 2975 3925 
Q 2950 3725 2950 3300 
L 4300 3300 
Q 4300 3700 4275 3950 
L 4800 3950 
Q 4775 3650 4775 3300 
Q 5325 3300 5725 3325 
L 5725 2900 
Q 5350 2925 4775 2925 
Q 4775 2250 4800 1950 
L 2450 1950 
Q 2475 2350 2475 2925 
Q 2175 2925 1600 2900 
L 1600 3325 
Q 2175 3300 2475 3300 
z
M 4300 2350 
L 4300 2925 
L 2950 2925 
L 2950 2350 
L 4300 2350 
z
M 2875 1275 
Q 3200 775 3650 425 
Q 4025 700 4425 1275 
L 2900 1275 
L 2875 1275 
z
" transform="scale(0.015625)"/>
       <path id="SimHei-28" d="M 2975 -200 
L 2700 -475 
Q 2075 125 1762 775 
Q 1450 1425 1450 2250 
Q 1450 3075 1762 3725 
Q 2075 4375 2700 5000 
L 2975 4725 
Q 2400 4175 2112 3587 
Q 1825 3000 1825 2250 
Q 1825 1500 2112 912 
Q 2400 325 2975 -200 
z
" transform="scale(0.015625)"/>
       <path id="SimHei-ba" d="M 5600 -325 
L 700 -325 
L 700 4825 
L 5600 4825 
L 5600 -325 
z
M 5400 4650 
L 875 4650 
L 875 -150 
L 5400 -150 
L 5400 4650 
z
" transform="scale(0.015625)"/>
       <path id="SimHei-43" d="M 2975 1825 
Q 2950 875 2575 475 
Q 2200 75 1675 75 
Q 1075 75 650 562 
Q 225 1050 225 2125 
Q 225 3300 637 3875 
Q 1050 4450 1700 4450 
Q 2250 4450 2612 4037 
Q 2975 3625 2950 2875 
L 2400 2875 
Q 2400 3425 2225 3700 
Q 2050 3975 1700 3975 
Q 1300 3975 1062 3562 
Q 825 3150 825 2175 
Q 825 1275 1062 912 
Q 1300 550 1675 550 
Q 1950 550 2175 812 
Q 2400 1075 2400 1825 
L 2975 1825 
z
" transform="scale(0.015625)"/>
       <path id="SimHei-29" d="M 1675 2250 
Q 1675 1425 1362 775 
Q 1050 125 425 -475 
L 150 -200 
Q 725 325 1012 912 
Q 1300 1500 1300 2250 
Q 1300 3000 1012 3587 
Q 725 4175 150 4725 
L 425 5000 
Q 1050 4375 1362 3725 
Q 1675 3075 1675 2250 
z
" transform="scale(0.015625)"/>
      </defs>
      <use xlink:href="#SimHei-6e29"/>
      <use xlink:href="#SimHei-5ea6" x="100"/>
      <use xlink:href="#SimHei-28" x="200"/>
      <use xlink:href="#SimHei-ba" x="250"/>
      <use xlink:href="#SimHei-43" x="350"/>
      <use xlink:href="#SimHei-29" x="400"/>
     </g>
    </g>
   </g>
   <g id="line2d_25">
    <path d="M 92.290909 369.36 
L 94.010478 367.351124 
L 95.730046 365.0573 
L 98.022804 361.580947 
L 99.742373 358.645993 
L 102.035131 354.329046 
L 104.327889 349.541936 
L 107.193837 342.973908 
L 110.632974 334.510982 
L 122.669954 304.278106 
L 127.25547 293.621088 
L 131.267797 284.858968 
L 135.853313 275.512707 
L 140.438829 266.864565 
L 143.877966 260.795194 
L 148.463482 253.258346 
L 151.902619 247.97258 
L 155.341757 243.000254 
L 159.354083 237.557767 
L 163.939599 231.801837 
L 168.525116 226.487576 
L 172.537442 222.156382 
L 177.696148 217.041583 
L 182.281664 212.852862 
L 186.86718 208.99183 
L 192.025886 205.01682 
L 196.038213 202.153102 
L 200.050539 199.488848 
L 204.636055 196.653625 
L 209.221572 194.04636 
L 213.807088 191.638558 
L 219.538983 188.88882 
L 226.417257 185.925371 
L 233.295532 183.303859 
L 241.320185 180.625357 
L 245.905701 179.243364 
L 256.223112 176.536367 
L 261.955008 175.225611 
L 270.552851 173.216735 
L 273.418798 172.347647 
L 276.284746 171.264848 
L 279.150693 169.968339 
L 282.589831 168.158926 
L 287.175347 165.537413 
L 302.651464 156.604325 
L 304.371032 155.364806 
L 306.090601 153.911576 
L 307.810169 152.244636 
L 310.102928 149.594629 
L 312.968875 145.71935 
L 315.834823 141.41665 
L 323.286287 130.090007 
L 326.725424 125.28865 
L 330.164561 120.900466 
L 333.030508 117.680565 
L 335.896456 114.802601 
L 339.908783 111.155279 
L 344.494299 107.308495 
L 351.945763 100.868693 
L 357.677658 95.739647 
L 361.689985 92.277541 
L 365.702311 89.014898 
L 369.714638 85.951717 
L 374.873344 82.33289 
L 381.178428 78.386375 
L 385.190755 76.106799 
L 389.203082 74.012438 
L 394.361787 71.547647 
L 400.093683 69.097102 
L 402.95963 68.071293 
L 405.252388 67.415915 
L 407.545146 67.031237 
L 409.264715 66.96 
L 410.984284 67.073979 
L 413.277042 67.515647 
L 415.5698 68.256509 
L 417.289368 69.05436 
L 419.008937 70.065922 
L 421.301695 71.789852 
L 423.021263 73.371307 
L 425.314022 75.850346 
L 427.60678 78.756806 
L 430.472727 82.931279 
L 432.765485 86.621343 
L 436.204622 92.647972 
L 440.216949 100.227562 
L 444.802465 109.331618 
L 453.973498 128.038389 
L 462.571341 145.320424 
L 469.449615 158.613201 
L 475.18151 169.241724 
L 480.913405 179.42858 
L 486.072111 188.204947 
L 491.804006 197.536961 
L 498.109091 207.282148 
L 498.109091 207.282148 
" clip-path="url(#p3443dcdc51)" style="fill: none; stroke: #ffa500; stroke-width: 2; stroke-linecap: square"/>
   </g>
   <g id="patch_3">
    <path d="M 72 384.48 
L 72 51.84 
" style="fill: none; stroke: #000000; stroke-width: 0.8; stroke-linejoin: miter; stroke-linecap: square"/>
   </g>
   <g id="patch_4">
    <path d="M 518.4 384.48 
L 518.4 51.84 
" style="fill: none; stroke: #000000; stroke-width: 0.8; stroke-linejoin: miter; stroke-linecap: square"/>
   </g>
   <g id="patch_5">
    <path d="M 72 384.48 
L 518.4 384.48 
" style="fill: none; stroke: #000000; stroke-width: 0.8; stroke-linejoin: miter; stroke-linecap: square"/>
   </g>
   <g id="patch_6">
    <path d="M 72 51.84 
L 518.4 51.84 
" style="fill: none; stroke: #000000; stroke-width: 0.8; stroke-linejoin: miter; stroke-linecap: square"/>
   </g>
   <g id="text_15">
    <!-- 温度曲线 -->
    <g transform="translate(271.2 45.84)scale(0.12 -0.12)">
     <defs>
      <path id="SimHei-66f2" d="M 5825 500 
Q 5825 -200 5850 -550 
L 5275 -550 
L 5275 -50 
L 1150 -50 
L 1150 -550 
L 575 -550 
Q 600 125 600 550 
L 600 2775 
Q 600 3425 575 3900 
L 2150 3900 
L 2150 4450 
Q 2125 4850 2125 5150 
L 2700 5150 
Q 2650 4825 2650 4475 
L 2650 3900 
L 3700 3900 
L 3700 4525 
Q 3700 4850 3675 5175 
L 4250 5175 
Q 4225 4875 4225 4550 
L 4225 3900 
L 5850 3900 
Q 5825 3525 5825 2750 
L 5825 500 
z
M 3700 325 
L 3700 1875 
L 2650 1875 
L 2650 325 
L 3700 325 
z
M 5275 325 
L 5275 1875 
L 4225 1875 
L 4225 325 
L 5275 325 
z
M 2150 325 
L 2150 1875 
L 1150 1875 
L 1150 325 
L 2150 325 
z
M 3700 2250 
L 3700 3525 
L 2650 3525 
L 2650 2250 
L 3700 2250 
z
M 5275 2250 
L 5275 3525 
L 4225 3525 
L 4225 2250 
L 5275 2250 
z
M 2150 2250 
L 2150 3525 
L 1150 3525 
L 1150 2250 
L 2150 2250 
z
" transform="scale(0.015625)"/>
      <path id="SimHei-7ebf" d="M 3450 4300 
Q 3450 4675 3375 5125 
Q 3700 5100 4050 5050 
Q 3975 4900 3950 4562 
Q 3925 4225 3950 3600 
L 4800 3750 
Q 5225 3850 5650 3975 
L 5750 3500 
Q 5325 3450 4875 3375 
L 3975 3200 
Q 3975 2800 4025 2500 
L 5000 2675 
Q 5500 2775 5950 2925 
L 6025 2450 
Q 5575 2375 5075 2275 
L 4100 2100 
Q 4150 1600 4350 1175 
Q 4575 1350 4787 1575 
Q 5000 1800 5175 2075 
Q 5550 1775 5750 1675 
Q 5425 1525 5237 1337 
Q 5050 1150 4625 750 
Q 4925 250 5162 112 
Q 5400 -25 5500 100 
Q 5600 225 5675 625 
Q 5900 450 6200 350 
Q 5775 -750 5275 -537 
Q 4775 -325 4225 450 
Q 3875 175 3537 -62 
Q 3200 -300 2700 -550 
Q 2575 -300 2325 -100 
Q 2825 75 3175 275 
Q 3525 475 3975 850 
Q 3750 1350 3650 2025 
Q 2900 1900 2600 1800 
L 2525 2275 
Q 2825 2275 3550 2425 
Q 3500 2825 3500 3100 
Q 2825 2950 2575 2875 
L 2475 3350 
Q 2725 3350 3450 3500 
L 3450 4300 
z
M 1950 4875 
Q 1700 4650 1462 4237 
Q 1225 3825 825 3225 
Q 1425 3250 1650 3250 
Q 1875 3625 2050 4075 
Q 2300 3900 2600 3800 
Q 2350 3550 2087 3125 
Q 1825 2700 1175 1675 
Q 1850 1725 2375 1775 
Q 2300 1525 2300 1350 
Q 2125 1350 1525 1287 
Q 925 1225 550 1125 
Q 525 1375 400 1650 
Q 700 1725 950 2050 
Q 1200 2375 1475 2875 
Q 650 2825 425 2675 
Q 350 2950 200 3225 
Q 525 3450 825 3962 
Q 1125 4475 1375 5150 
Q 1625 4975 1950 4875 
z
M 2575 875 
Q 2550 600 2575 450 
Q 1950 325 1450 200 
Q 950 75 525 -75 
Q 450 200 250 475 
Q 950 550 1325 612 
Q 1700 675 2575 875 
z
M 4850 4025 
Q 4675 4300 4375 4675 
L 4775 4875 
Q 4875 4750 5275 4275 
Q 5025 4175 4850 4025 
z
" transform="scale(0.015625)"/>
     </defs>
     <use xlink:href="#SimHei-6e29"/>
     <use xlink:href="#SimHei-5ea6" x="100"/>
     <use xlink:href="#SimHei-66f2" x="200"/>
     <use xlink:href="#SimHei-7ebf" x="300"/>
    </g>
   </g>
   <g id="legend_1">
    <g id="patch_7">
     <path d="M 459.4 74.097812 
L 511.4 74.097812 
Q 513.4 74.097812 513.4 72.097812 
L 513.4 58.84 
Q 513.4 56.84 511.4 56.84 
L 459.4 56.84 
Q 457.4 56.84 457.4 58.84 
L 457.4 72.097812 
Q 457.4 74.097812 459.4 74.097812 
z
" style="fill: #ffffff; opacity: 0.8; stroke: #cccccc; stroke-linejoin: miter"/>
    </g>
    <g id="line2d_26">
     <path d="M 461.4 65.347812 
L 471.4 65.347812 
L 481.4 65.347812 
" style="fill: none; stroke: #ffa500; stroke-width: 2; stroke-linecap: square"/>
    </g>
    <g id="text_16">
     <!-- 温度 -->
     <g transform="translate(489.4 68.847812)scale(0.1 -0.1)">
      <use xlink:href="#SimHei-6e29"/>
      <use xlink:href="#SimHei-5ea6" x="100"/>
     </g>
    </g>
   </g>
  </g>
 </g>
 <defs>
  <clipPath id="p3443dcdc51">
   <rect x="72" y="51.84" width="446.4" height="332.64"/>
  </clipPath>
 </defs>
</svg>
